<svg xmlns="http://www.w3.org/2000/svg" width="230" height="230" viewBox="0 0 230 230" version="1.1"><path d="M 100 15 L 100 20 95 20 L 90 20 90 30 L 90 40 80 40 L 70 40 70 35 L 70 30 55 30 L 40 30 40 35 L 40 40 35 40 L 30 40 30 55 L 30 70 35 70 L 40 70 40 80 L 40 90 30 90 L 20 90 20 95 L 20 100 15 100 L 10 100 10 115 L 10 130 15 130 L 20 130 20 135 L 20 140 30 140 L 40 140 40 150 L 40 160 35 160 L 30 160 30 175 L 30 190 35 190 L 40 190 40 195 L 40 200 55 200 L 70 200 70 195 L 70 190 80 190 L 90 190 90 200 L 90 210 95 210 L 100 210 100 215 L 100 220 115 220 L 130 220 130 215 L 130 210 135 210 L 140 210 140 200 L 140 190 150 190 L 160 190 160 195 L 160 200 175 200 L 190 200 190 195 L 190 190 195 190 L 200 190 200 175 L 200 160 195 160 L 190 160 190 150 L 190 140 200 140 L 210 140 210 135 L 210 130 215 130 L 220 130 220 115 L 220 100 215 100 L 210 100 210 95 L 210 90 200 90 L 190 90 190 80 L 190 70 195 70 L 200 70 200 55 L 200 40 195 40 L 190 40 190 35 L 190 30 175 30 L 160 30 160 35 L 160 40 150 40 L 140 40 140 30 L 140 20 135 20 L 130 20 130 15 L 130 10 115 10 L 100 10 100 15 M 100 30 L 100 40 95 40 L 90 40 90 45 L 90 50 80 50 L 70 50 70 45 L 70 40 55 40 L 40 40 40 55 L 40 70 45 70 L 50 70 50 80 L 50 90 45 90 L 40 90 40 95 L 40 100 30 100 L 20 100 20 115 L 20 130 30 130 L 40 130 40 135 L 40 140 45 140 L 50 140 50 150 L 50 160 45 160 L 40 160 40 175 L 40 190 55 190 L 70 190 70 185 L 70 180 80 180 L 90 180 90 185 L 90 190 95 190 L 100 190 100 200 L 100 210 115 210 L 130 210 130 200 L 130 190 135 190 L 140 190 140 185 L 140 180 150 180 L 160 180 160 185 L 160 190 175 190 L 190 190 190 175 L 190 160 185 160 L 180 160 180 150 L 180 140 185 140 L 190 140 190 135 L 190 130 200 130 L 210 130 210 115 L 210 100 200 100 L 190 100 190 95 L 190 90 185 90 L 180 90 180 80 L 180 70 185 70 L 190 70 190 55 L 190 40 175 40 L 160 40 160 45 L 160 50 150 50 L 140 50 140 45 L 140 40 135 40 L 130 40 130 30 L 130 20 115 20 L 100 20 100 30 M 100 95 L 100 100 95 100 L 90 100 90 115 L 90 130 95 130 L 100 130 100 135 L 100 140 115 140 L 130 140 130 135 L 130 130 135 130 L 140 130 140 115 L 140 100 135 100 L 130 100 130 95 L 130 90 115 90 L 100 90 100 95 M 100 115 L 100 130 115 130 L 130 130 130 115 L 130 100 115 100 L 100 100 100 115" stroke="none" fill="#000000" fill-rule="evenodd"/><path d="M 100 15 L 100 20 95 20 L 90 20 90 30 L 90 40 80 40 L 70 40 70 35 L 70 30 55 30 L 40 30 40 35 L 40 40 35 40 L 30 40 30 55 L 30 70 35 70 L 40 70 40 80 L 40 90 30 90 L 20 90 20 95 L 20 100 15 100 L 10 100 10 115 L 10 130 15 130 L 20 130 20 135 L 20 140 30 140 L 40 140 40 150 L 40 160 35 160 L 30 160 30 175 L 30 190 35 190 L 40 190 40 195 L 40 200 55 200 L 70 200 70 195 L 70 190 80 190 L 90 190 90 200 L 90 210 95 210 L 100 210 100 215 L 100 220 115 220 L 130 220 130 215 L 130 210 135 210 L 140 210 140 200 L 140 190 150 190 L 160 190 160 195 L 160 200 175 200 L 190 200 190 195 L 190 190 195 190 L 200 190 200 175 L 200 160 195 160 L 190 160 190 150 L 190 140 200 140 L 210 140 210 135 L 210 130 215 130 L 220 130 220 115 L 220 100 215 100 L 210 100 210 95 L 210 90 200 90 L 190 90 190 80 L 190 70 195 70 L 200 70 200 55 L 200 40 195 40 L 190 40 190 35 L 190 30 175 30 L 160 30 160 35 L 160 40 150 40 L 140 40 140 30 L 140 20 135 20 L 130 20 130 15 L 130 10 115 10 L 100 10 100 15 M 100 30 L 100 40 95 40 L 90 40 90 45 L 90 50 80 50 L 70 50 70 45 L 70 40 55 40 L 40 40 40 55 L 40 70 45 70 L 50 70 50 80 L 50 90 45 90 L 40 90 40 95 L 40 100 30 100 L 20 100 20 115 L 20 130 30 130 L 40 130 40 135 L 40 140 45 140 L 50 140 50 150 L 50 160 45 160 L 40 160 40 175 L 40 190 55 190 L 70 190 70 185 L 70 180 80 180 L 90 180 90 185 L 90 190 95 190 L 100 190 100 200 L 100 210 115 210 L 130 210 130 200 L 130 190 135 190 L 140 190 140 185 L 140 180 150 180 L 160 180 160 185 L 160 190 175 190 L 190 190 190 175 L 190 160 185 160 L 180 160 180 150 L 180 140 185 140 L 190 140 190 135 L 190 130 200 130 L 210 130 210 115 L 210 100 200 100 L 190 100 190 95 L 190 90 185 90 L 180 90 180 80 L 180 70 185 70 L 190 70 190 55 L 190 40 175 40 L 160 40 160 45 L 160 50 150 50 L 140 50 140 45 L 140 40 135 40 L 130 40 130 30 L 130 20 115 20 L 100 20 100 30 M 100 95 L 100 100 95 100 L 90 100 90 115 L 90 130 95 130 L 100 130 100 135 L 100 140 115 140 L 130 140 130 135 L 130 130 135 130 L 140 130 140 115 L 140 100 135 100 L 130 100 130 95 L 130 90 115 90 L 100 90 100 95 M 100 115 L 100 130 115 130 L 130 130 130 115 L 130 100 115 100 L 100 100 100 115" stroke="none" fill="#000000" fill-rule="evenodd"/><path d="M -0 115.004 L -0 230.008 115.250 229.754 L 230.500 229.500 230.754 114.750 L 231.008 -0 115.504 -0 L 0 0 -0 115.004 M 0.483 115.500 L 0.483 230.500 0.750 172.673 L 1.016 114.846 0.750 57.673 L 0.483 0.500 0.483 115.500 M 100 15 L 100 20 95 20 L 90 20 90 30 L 90 40 80 40 L 70 40 70 35 L 70 30 55 30 L 40 30 40 35 L 40 40 35 40 L 30 40 30 55 L 30 70 35 70 L 40 70 40 80 L 40 90 30 90 L 20 90 20 95 L 20 100 15 100 L 10 100 10 115 L 10 130 15 130 L 20 130 20 135 L 20 140 30 140 L 40 140 40 150 L 40 160 35 160 L 30 160 30 175 L 30 190 35 190 L 40 190 40 195 L 40 200 55 200 L 70 200 70 195 L 70 190 80 190 L 90 190 90 200 L 90 210 95 210 L 100 210 100 215 L 100 220 115 220 L 130 220 130 215 L 130 210 135 210 L 140 210 140 200 L 140 190 150 190 L 160 190 160 195 L 160 200 175 200 L 190 200 190 195 L 190 190 195 190 L 200 190 200 175 L 200 160 195 160 L 190 160 190 150 L 190 140 200 140 L 210 140 210 135 L 210 130 215 130 L 220 130 220 115 L 220 100 215 100 L 210 100 210 95 L 210 90 200 90 L 190 90 190 80 L 190 70 195 70 L 200 70 200 55 L 200 40 195 40 L 190 40 190 35 L 190 30 175 30 L 160 30 160 35 L 160 40 150 40 L 140 40 140 30 L 140 20 135 20 L 130 20 130 15 L 130 10 115 10 L 100 10 100 15 M 100 115 L 100 130 115 130 L 130 130 130 115 L 130 100 115 100 L 100 100 100 115" stroke="none" fill="#fcfcfc" fill-rule="evenodd"/><path d="M -0 115.004 L -0 230.008 115.250 229.754 L 230.500 229.500 230.754 114.750 L 231.008 -0 115.504 -0 L 0 0 -0 115.004 M 0.483 115.500 L 0.483 230.500 0.750 172.673 L 1.016 114.846 0.750 57.673 L 0.483 0.500 0.483 115.500 M 100 15 L 100 20 95 20 L 90 20 90 30 L 90 40 80 40 L 70 40 70 35 L 70 30 55 30 L 40 30 40 35 L 40 40 35 40 L 30 40 30 55 L 30 70 35 70 L 40 70 40 80 L 40 90 30 90 L 20 90 20 95 L 20 100 15 100 L 10 100 10 115 L 10 130 15 130 L 20 130 20 135 L 20 140 30 140 L 40 140 40 150 L 40 160 35 160 L 30 160 30 175 L 30 190 35 190 L 40 190 40 195 L 40 200 55 200 L 70 200 70 195 L 70 190 80 190 L 90 190 90 200 L 90 210 95 210 L 100 210 100 215 L 100 220 115 220 L 130 220 130 215 L 130 210 135 210 L 140 210 140 200 L 140 190 150 190 L 160 190 160 195 L 160 200 175 200 L 190 200 190 195 L 190 190 195 190 L 200 190 200 175 L 200 160 195 160 L 190 160 190 150 L 190 140 200 140 L 210 140 210 135 L 210 130 215 130 L 220 130 220 115 L 220 100 215 100 L 210 100 210 95 L 210 90 200 90 L 190 90 190 80 L 190 70 195 70 L 200 70 200 55 L 200 40 195 40 L 190 40 190 35 L 190 30 175 30 L 160 30 160 35 L 160 40 150 40 L 140 40 140 30 L 140 20 135 20 L 130 20 130 15 L 130 10 115 10 L 100 10 100 15 M 100 115 L 100 130 115 130 L 130 130 130 115 L 130 100 115 100 L 100 100 100 115" stroke="none" fill="#fcfcfc" fill-rule="evenodd"/><path d="M 100 30 L 100 40 95 40 L 90 40 90 45 L 90 50 80 50 L 70 50 70 45 L 70 40 55 40 L 40 40 40 55 L 40 70 45 70 L 50 70 50 80 L 50 90 45 90 L 40 90 40 95 L 40 100 30 100 L 20 100 20 115 L 20 130 30 130 L 40 130 40 135 L 40 140 45 140 L 50 140 50 150 L 50 160 45 160 L 40 160 40 175 L 40 190 55 190 L 70 190 70 185 L 70 180 80 180 L 90 180 90 185 L 90 190 95 190 L 100 190 100 200 L 100 210 115 210 L 130 210 130 200 L 130 190 135 190 L 140 190 140 185 L 140 180 150 180 L 160 180 160 185 L 160 190 175 190 L 190 190 190 175 L 190 160 185 160 L 180 160 180 150 L 180 140 185 140 L 190 140 190 135 L 190 130 200 130 L 210 130 210 115 L 210 100 200 100 L 190 100 190 95 L 190 90 185 90 L 180 90 180 80 L 180 70 185 70 L 190 70 190 55 L 190 40 175 40 L 160 40 160 45 L 160 50 150 50 L 140 50 140 45 L 140 40 135 40 L 130 40 130 30 L 130 20 115 20 L 100 20 100 30 M 100 95 L 100 100 95 100 L 90 100 90 115 L 90 130 95 130 L 100 130 100 135 L 100 140 115 140 L 130 140 130 135 L 130 130 135 130 L 140 130 140 115 L 140 100 135 100 L 130 100 130 95 L 130 90 115 90 L 100 90 100 95" stroke="none" fill="#9c9c9c" fill-rule="evenodd"/></svg>