<svg version="1.1" id="Layer_1" xmlns="http://www.w3.org/2000/svg" xmlns:xlink="http://www.w3.org/1999/xlink" x="0px" y="0px"
	 width="100%" viewBox="0 0 200 200" enable-background="new 0 0 200 200" xml:space="preserve">
<path fill="#F0F8FF" opacity="1.000000" stroke="none" 
	d="
M121.000000,201.000000 
	C80.691574,201.000000 40.883148,201.000000 1.037362,201.000000 
	C1.037362,134.399948 1.037362,67.799866 1.037362,1.099894 
	C67.558250,1.099894 134.116699,1.099894 200.837585,1.099894 
	C200.837585,67.666344 200.837585,134.333145 200.837585,201.000000 
	C174.466812,201.000000 147.983414,201.000000 121.000000,201.000000 
M161.894272,150.997665 
	C164.809494,150.997665 167.724731,150.997665 170.970306,150.997665 
	C170.970306,144.053818 170.970306,137.511490 171.894272,130.997665 
	C174.809509,130.997665 177.724747,130.997665 180.970352,130.997665 
	C180.970352,124.053818 180.970352,117.511444 181.894302,110.997658 
	C184.831726,110.997658 187.769165,110.997658 190.784515,110.997658 
	C190.784515,97.468071 190.784515,84.417709 190.784515,70.979286 
	C184.180115,70.979286 177.776718,70.979286 171.000275,70.979286 
	C171.000275,64.201805 171.000275,57.800575 171.000275,51.023010 
	C140.734467,51.023010 110.856064,51.023010 80.998306,50.099594 
	C80.998306,47.185982 80.998306,44.272369 80.998306,41.022327 
	C74.055870,41.022327 67.516434,41.022327 60.998257,40.099129 
	C60.998257,37.174427 60.998257,34.249729 60.998257,31.313644 
	C50.739849,31.313644 40.929676,31.313644 31.022331,31.313644 
	C31.022331,34.758884 31.022331,37.890949 30.082727,41.001709 
	C23.816284,41.001709 17.549841,41.001709 11.365900,41.001709 
	C11.365900,81.314285 11.365900,121.124283 11.365900,161.330078 
	C14.807872,161.330078 17.880989,161.330078 21.151264,161.330078 
	C21.151264,164.683243 21.151264,167.638474 21.151264,171.138321 
	C31.220289,171.138321 41.086483,171.138321 51.318981,171.138321 
	C51.318981,174.773117 51.318981,177.847382 51.318981,180.704697 
	C84.752319,180.704697 117.793602,180.704697 150.969131,180.704697 
	C150.969131,177.263641 150.969131,174.116974 151.893402,170.997757 
	C154.808777,170.997757 157.724152,170.997757 160.970306,170.997757 
	C160.970306,164.054245 160.970306,157.511703 161.894272,150.997665 
z"/>
<path fill="#000000" opacity="1.000000" stroke="none" 
	d="
M150.969131,170.970306 
	C150.969131,174.116974 150.969131,177.263641 150.969131,180.704697 
	C117.793602,180.704697 84.752319,180.704697 51.318981,180.704697 
	C51.318981,177.847382 51.318981,174.773117 51.318981,171.138321 
	C41.086483,171.138321 31.220289,171.138321 21.151264,171.138321 
	C21.151264,167.638474 21.151264,164.683243 21.151264,161.330078 
	C17.880989,161.330078 14.807872,161.330078 11.365900,161.330078 
	C11.365900,121.124283 11.365900,81.314285 11.365900,41.001709 
	C17.549841,41.001709 23.816284,41.001709 30.540058,40.999634 
	C30.997389,40.997555 30.972265,40.972271 30.984240,41.433273 
	C30.996214,44.833244 30.996214,47.772209 30.996214,51.170185 
	C27.364723,51.170185 24.296047,51.170185 21.329872,51.170185 
	C21.329872,84.697571 21.329872,117.741493 21.329872,151.257507 
	C24.729500,151.257507 27.799625,151.257507 31.147827,151.257507 
	C31.147827,154.679214 31.147827,157.625854 31.147827,160.738739 
	C34.511250,160.738739 37.570415,160.738739 41.103565,160.738739 
	C41.103565,154.082764 41.103565,147.678986 41.103565,140.946030 
	C44.716656,140.946030 47.855186,140.946030 50.996483,141.417908 
	C50.999245,148.159912 50.999245,154.430054 50.999245,161.147171 
	C54.612953,161.147171 57.692562,161.147171 61.203613,161.147171 
	C61.203613,164.666061 61.203613,167.740265 61.203613,171.034958 
	C91.454987,171.034958 121.244972,171.034958 151.018585,171.018707 
	C151.002197,171.002472 150.969131,170.970306 150.969131,170.970306 
z"/>
<path fill="#000000" opacity="1.000000" stroke="none" 
	d="
M80.977661,51.023010 
	C110.856064,51.023010 140.734467,51.023010 171.000275,51.023010 
	C171.000275,57.800575 171.000275,64.201805 171.000275,70.979286 
	C177.776718,70.979286 184.180115,70.979286 190.784515,70.979286 
	C190.784515,84.417709 190.784515,97.468071 190.784515,110.997658 
	C187.769165,110.997658 184.831726,110.997658 181.448410,110.999901 
	C181.002518,111.002144 181.034958,111.034958 181.019562,110.564270 
	C181.004181,100.495712 181.004181,90.897850 181.004181,81.288391 
	C147.388351,81.288391 114.343018,81.288391 80.841644,81.288391 
	C80.841644,87.976074 80.841644,94.384987 80.841644,100.993530 
	C77.239197,100.993530 74.092636,100.993530 70.969437,100.528603 
	C70.992798,90.475647 70.992798,80.887619 70.992798,70.874969 
	C101.285065,70.874969 130.983841,70.874969 160.683655,70.874969 
	C160.683655,67.373329 160.683655,64.315521 160.683655,60.831696 
	C133.997818,60.831696 107.625366,60.831696 81.027740,60.831696 
	C81.027740,57.253574 81.027740,54.112926 81.015167,50.984909 
	C81.002602,50.997547 80.977661,51.023010 80.977661,51.023010 
z"/>
<path fill="#000000" opacity="1.000000" stroke="none" 
	d="
M31.009861,41.010284 
	C31.022331,37.890949 31.022331,34.758884 31.022331,31.313644 
	C40.929676,31.313644 50.739849,31.313644 60.998257,31.313644 
	C60.998257,34.249729 60.998257,37.174427 61.000355,40.548260 
	C61.002453,40.997391 61.027737,40.972271 60.557442,40.984276 
	C50.382187,40.988277 40.677227,40.980274 30.972265,40.972271 
	C30.972265,40.972271 30.997389,40.997555 31.009861,41.010284 
z"/>
<path fill="#000000" opacity="1.000000" stroke="none" 
	d="
M60.989723,41.009857 
	C67.516434,41.022327 74.055870,41.022327 80.998306,41.022327 
	C80.998306,44.272369 80.998306,47.185982 80.987984,50.561302 
	C80.977661,51.023010 81.002602,50.997547 80.545006,50.996918 
	C73.768242,50.996284 67.449074,50.996284 61.027737,50.996284 
	C61.027737,47.187691 61.027737,44.079979 61.027737,40.972271 
	C61.027737,40.972271 61.002453,40.997391 60.989723,41.009857 
z"/>
<path fill="#000000" opacity="1.000000" stroke="none" 
	d="
M180.986435,110.985611 
	C180.970352,117.511444 180.970352,124.053818 180.970352,130.997665 
	C177.724747,130.997665 174.809509,130.997665 171.448364,130.999939 
	C171.002472,131.002228 171.034943,131.034973 171.019562,130.564438 
	C171.004181,123.766586 171.004181,117.439278 171.004181,111.034958 
	C174.809784,111.034958 177.922379,111.034958 181.034958,111.034958 
	C181.034958,111.034958 181.002518,111.002144 180.986435,110.985611 
z"/>
<path fill="#000000" opacity="1.000000" stroke="none" 
	d="
M170.986389,130.985687 
	C170.970306,137.511490 170.970306,144.053818 170.970306,150.997665 
	C167.724731,150.997665 164.809494,150.997665 161.448364,150.999939 
	C161.002472,151.002228 161.034943,151.034973 161.019562,150.564453 
	C161.004181,143.766617 161.004181,137.439301 161.004181,131.034973 
	C164.809769,131.034973 167.922363,131.034973 171.034943,131.034973 
	C171.034943,131.034973 171.002472,131.002228 170.986389,130.985687 
z"/>
<path fill="#000000" opacity="1.000000" stroke="none" 
	d="
M160.986389,150.985687 
	C160.970306,157.511703 160.970306,164.054245 160.970306,170.997757 
	C157.724152,170.997757 154.808777,170.997757 151.431274,170.984039 
	C150.969131,170.970306 151.002197,171.002472 151.003189,170.548172 
	C151.004181,163.766571 151.004181,157.439270 151.004181,151.034973 
	C154.809784,151.034973 157.922363,151.034973 161.034943,151.034973 
	C161.034943,151.034973 161.002472,151.002228 160.986389,150.985687 
z"/>
<path fill="#FFC107" opacity="1.000000" stroke="none" 
	d="
M161.019562,150.564453 
	C157.922363,151.034973 154.809784,151.034973 151.004181,151.034973 
	C151.004181,157.439270 151.004181,163.766571 151.019562,170.564423 
	C121.244972,171.034958 91.454987,171.034958 61.203613,171.034958 
	C61.203613,167.740265 61.203613,164.666061 61.203613,161.147171 
	C57.692562,161.147171 54.612953,161.147171 50.999245,161.147171 
	C50.999245,154.430054 50.999245,148.159912 50.969070,141.439056 
	C50.938896,140.988312 50.958183,141.055939 51.419914,141.031372 
	C54.791409,141.006821 57.701164,141.006821 61.055893,141.006821 
	C61.055893,134.018738 61.055893,127.488441 61.010452,120.961594 
	C60.965012,120.965050 60.958179,121.055931 61.419914,121.031380 
	C64.791412,121.006828 67.701172,121.006828 71.055893,121.006828 
	C71.055893,114.019753 71.055893,107.488945 71.022308,100.947937 
	C70.988716,100.937737 70.946083,100.993530 70.946083,100.993530 
	C74.092636,100.993530 77.239197,100.993530 80.841644,100.993530 
	C80.841644,94.384987 80.841644,87.976074 80.841644,81.288391 
	C114.343018,81.288391 147.388351,81.288391 181.004181,81.288391 
	C181.004181,90.897850 181.004181,100.495712 181.019562,110.564270 
	C177.922379,111.034958 174.809784,111.034958 171.004181,111.034958 
	C171.004181,117.439278 171.004181,123.766586 171.019562,130.564438 
	C167.922363,131.034973 164.809769,131.034973 161.004181,131.034973 
	C161.004181,137.439301 161.004181,143.766617 161.019562,150.564453 
z"/>
<path fill="#FF9800" opacity="1.000000" stroke="none" 
	d="
M60.557442,40.984276 
	C61.027737,44.079979 61.027737,47.187691 61.027737,50.996284 
	C67.449074,50.996284 73.768242,50.996284 80.557571,50.984280 
	C81.027740,54.112926 81.027740,57.253574 81.027740,60.831696 
	C107.625366,60.831696 133.997818,60.831696 160.683655,60.831696 
	C160.683655,64.315521 160.683655,67.373329 160.683655,70.874969 
	C130.983841,70.874969 101.285065,70.874969 70.992798,70.874969 
	C70.992798,80.887619 70.992798,90.475647 70.969437,100.528603 
	C70.946083,100.993530 70.988716,100.937737 70.559540,100.966011 
	C67.220375,100.994286 64.310387,100.994286 60.958179,100.994286 
	C60.958179,107.994530 60.958179,114.525230 60.958179,121.055931 
	C60.958179,121.055931 60.965012,120.965050 60.547691,120.979668 
	C57.220375,120.994286 54.310383,120.994286 50.958183,120.994286 
	C50.958183,127.994530 50.958183,134.525238 50.958183,141.055939 
	C50.958183,141.055939 50.938896,140.988312 50.966309,140.967163 
	C47.855186,140.946030 44.716656,140.946030 41.103565,140.946030 
	C41.103565,147.678986 41.103565,154.082764 41.103565,160.738739 
	C37.570415,160.738739 34.511250,160.738739 31.147827,160.738739 
	C31.147827,157.625854 31.147827,154.679214 31.147827,151.257507 
	C27.799625,151.257507 24.729500,151.257507 21.329872,151.257507 
	C21.329872,117.741493 21.329872,84.697571 21.329872,51.170185 
	C24.296047,51.170185 27.364723,51.170185 30.996214,51.170185 
	C30.996214,47.772209 30.996214,44.833244 30.984240,41.433273 
	C40.677227,40.980274 50.382187,40.988277 60.557442,40.984276 
z"/>
<path fill="#000000" opacity="1.000000" stroke="none" 
	d="
M61.419914,121.031380 
	C60.958179,114.525230 60.958179,107.994530 60.958179,100.994286 
	C64.310387,100.994286 67.220375,100.994286 70.593124,100.976212 
	C71.055893,107.488945 71.055893,114.019753 71.055893,121.006828 
	C67.701172,121.006828 64.791412,121.006828 61.419914,121.031380 
z"/>
<path fill="#000000" opacity="1.000000" stroke="none" 
	d="
M51.419914,141.031372 
	C50.958183,134.525238 50.958183,127.994530 50.958183,120.994286 
	C54.310383,120.994286 57.220375,120.994286 60.593132,120.976212 
	C61.055893,127.488441 61.055893,134.018738 61.055893,141.006821 
	C57.701164,141.006821 54.791409,141.006821 51.419914,141.031372 
z"/>
</svg>