<svg version="1.1" id="Layer_1" xmlns="http://www.w3.org/2000/svg" xmlns:xlink="http://www.w3.org/1999/xlink" x="0px" y="0px"
	 width="100%" viewBox="0 0 200 200" enable-background="new 0 0 200 200" xml:space="preserve">
<path fill="#303F46" opacity="1.000000" stroke="none" 
	d="
M119.000000,201.000000 
	C79.357826,201.000000 40.215649,201.000000 1.036737,201.000000 
	C1.036737,134.399536 1.036737,67.799034 1.036737,1.099268 
	C67.558670,1.099268 134.117538,1.099268 200.838196,1.099268 
	C200.838196,67.666351 200.838196,134.333145 200.838196,201.000000 
	C173.799316,201.000000 146.649658,201.000000 119.000000,201.000000 
M39.500809,21.000000 
	C33.419128,21.000000 27.337446,21.000000 21.354370,21.000000 
	C21.354370,28.096693 21.354370,34.342705 21.354370,40.577545 
	C71.378426,40.577545 121.046913,40.577545 170.645752,40.577545 
	C170.645752,33.903538 170.645752,27.657528 170.645752,21.000000 
	C127.028763,21.000000 83.764664,21.000000 39.500809,21.000000 
M45.507404,141.000000 
	C45.174370,141.000000 44.841331,141.000000 44.508297,141.000000 
	C30.917576,141.000000 31.143099,141.004272 30.884056,154.660385 
	C30.787960,159.726334 32.304916,161.131058 37.346523,161.106766 
	C77.477646,160.913406 117.610107,160.999619 157.742157,160.999985 
	C171.062439,161.000107 171.062439,160.999985 170.999191,147.586517 
	C170.968292,141.031464 170.968277,141.006363 164.403564,141.004929 
	C125.104126,140.996338 85.804695,141.000275 45.507404,141.000000 
M61.500000,111.000000 
	C51.427822,111.000000 41.355640,111.000000 31.272476,111.000000 
	C31.272476,118.001228 31.272476,124.250885 31.272476,130.714569 
	C67.870705,130.714569 104.196152,130.714569 140.639618,130.714569 
	C140.639618,124.057037 140.639618,117.689514 140.639618,111.000000 
	C114.353752,111.000000 88.426880,111.000000 61.500000,111.000000 
M166.500000,81.000000 
	C145.867706,81.000000 125.235405,81.000000 104.603111,81.000000 
	C90.918159,81.000000 91.122292,81.003441 90.893562,94.574303 
	C90.810417,99.507614 92.116920,101.163528 97.280556,101.114296 
	C123.567734,100.863693 149.858597,100.999580 176.148178,100.999962 
	C191.570862,101.000183 191.445663,101.003021 191.077454,85.675491 
	C190.984512,81.806313 189.463974,80.850105 185.967651,80.954803 
	C179.816818,81.138985 173.656387,81.002319 166.500000,81.000000 
M114.500000,51.000000 
	C95.337578,51.000618 76.173027,51.156532 57.014183,50.895103 
	C52.086300,50.827858 50.458927,52.458603 50.941696,57.184261 
	C51.261829,60.317944 51.144066,63.517094 50.977554,66.674026 
	C50.805981,69.926941 52.166317,71.037369 55.367870,71.029495 
	C85.527649,70.955246 115.687721,70.962181 145.847580,71.016670 
	C148.783966,71.021973 150.140335,70.019119 150.014786,66.959122 
	C149.871490,63.465981 149.813995,59.950916 150.038010,56.465870 
	C150.304138,52.325211 148.584030,50.864712 144.492371,50.945171 
	C134.831619,51.135132 125.164528,51.002289 114.500000,51.000000 
M23.771137,171.010361 
	C22.860456,171.677734 21.184401,172.317795 21.159456,173.016769 
	C20.948559,178.925888 21.039093,184.845779 21.039093,190.678101 
	C48.069565,190.678101 74.314095,190.678101 100.580826,190.678101 
	C100.580826,183.978165 100.580826,177.607010 100.580826,171.002258 
	C75.017998,171.002258 49.873554,171.002258 23.771137,171.010361 
M55.763000,100.991417 
	C59.251041,100.994278 62.739086,100.999413 66.227127,100.999611 
	C81.955574,101.000504 81.892357,101.003410 81.038010,85.148209 
	C80.881500,82.243736 79.986443,80.936943 76.951950,80.984367 
	C69.645538,81.098518 62.334915,81.099350 55.028526,80.984535 
	C51.976414,80.936577 50.900539,82.260025 50.989231,85.171745 
	C51.110550,89.154350 51.093548,93.144989 51.000313,97.129005 
	C50.936394,99.860153 52.079712,101.161980 55.763000,100.991417 
M174.364075,70.999275 
	C180.979507,70.903084 180.979507,70.903084 180.999481,63.981949 
	C181.037033,50.976234 181.037018,50.976231 168.365784,51.000324 
	C161.015503,51.014301 161.015488,51.014305 161.000351,58.284969 
	C160.973892,71.000473 160.973892,71.000473 174.364075,70.999275 
z"/>
<path fill="#00BCD4" opacity="1.000000" stroke="none" 
	d="
M40.000687,21.000000 
	C83.764664,21.000000 127.028763,21.000000 170.645752,21.000000 
	C170.645752,27.657528 170.645752,33.903538 170.645752,40.577545 
	C121.046913,40.577545 71.378426,40.577545 21.354370,40.577545 
	C21.354370,34.342705 21.354370,28.096693 21.354370,21.000000 
	C27.337446,21.000000 33.419128,21.000000 40.000687,21.000000 
z"/>
<path fill="#4CAF50" opacity="1.000000" stroke="none" 
	d="
M46.006332,141.000000 
	C85.804695,141.000275 125.104126,140.996338 164.403564,141.004929 
	C170.968277,141.006363 170.968292,141.031464 170.999191,147.586517 
	C171.062439,160.999985 171.062439,161.000107 157.742157,160.999985 
	C117.610107,160.999619 77.477646,160.913406 37.346523,161.106766 
	C32.304916,161.131058 30.787960,159.726334 30.884056,154.660385 
	C31.143099,141.004272 30.917576,141.000000 44.508297,141.000000 
	C44.841331,141.000000 45.174370,141.000000 46.006332,141.000000 
z"/>
<path fill="#CDDC39" opacity="1.000000" stroke="none" 
	d="
M62.000000,111.000000 
	C88.426880,111.000000 114.353752,111.000000 140.639618,111.000000 
	C140.639618,117.689514 140.639618,124.057037 140.639618,130.714569 
	C104.196152,130.714569 67.870705,130.714569 31.272476,130.714569 
	C31.272476,124.250885 31.272476,118.001228 31.272476,111.000000 
	C41.355640,111.000000 51.427822,111.000000 62.000000,111.000000 
z"/>
<path fill="#942020" opacity="1.000000" stroke="none" 
	d="
M166.999985,81.000000 
	C173.656387,81.002319 179.816818,81.138985 185.967651,80.954803 
	C189.463974,80.850105 190.984512,81.806313 191.077454,85.675491 
	C191.445663,101.003021 191.570862,101.000183 176.148178,100.999962 
	C149.858597,100.999580 123.567734,100.863693 97.280556,101.114296 
	C92.116920,101.163528 90.810417,99.507614 90.893562,94.574303 
	C91.122292,81.003441 90.918159,81.000000 104.603111,81.000000 
	C125.235405,81.000000 145.867706,81.000000 166.999985,81.000000 
z"/>
<path fill="#4CAF50" opacity="1.000000" stroke="none" 
	d="
M115.000000,51.000000 
	C125.164528,51.002289 134.831619,51.135132 144.492371,50.945171 
	C148.584030,50.864712 150.304138,52.325211 150.038010,56.465870 
	C149.813995,59.950916 149.871490,63.465981 150.014786,66.959122 
	C150.140335,70.019119 148.783966,71.021973 145.847580,71.016670 
	C115.687721,70.962181 85.527649,70.955246 55.367870,71.029495 
	C52.166317,71.037369 50.805981,69.926941 50.977554,66.674026 
	C51.144066,63.517094 51.261829,60.317944 50.941696,57.184261 
	C50.458927,52.458603 52.086300,50.827858 57.014183,50.895103 
	C76.173027,51.156532 95.337578,51.000618 115.000000,51.000000 
z"/>
<path fill="#03A9F4" opacity="1.000000" stroke="none" 
	d="
M24.250122,171.006317 
	C49.873554,171.002258 75.017998,171.002258 100.580826,171.002258 
	C100.580826,177.607010 100.580826,183.978165 100.580826,190.678101 
	C74.314095,190.678101 48.069565,190.678101 21.039093,190.678101 
	C21.039093,184.845779 20.948559,178.925888 21.159456,173.016769 
	C21.184401,172.317795 22.860456,171.677734 24.250122,171.006317 
z"/>
<path fill="#942020" opacity="1.000000" stroke="none" 
	d="
M55.297699,100.983017 
	C52.079712,101.161980 50.936394,99.860153 51.000313,97.129005 
	C51.093548,93.144989 51.110550,89.154350 50.989231,85.171745 
	C50.900539,82.260025 51.976414,80.936577 55.028526,80.984535 
	C62.334915,81.099350 69.645538,81.098518 76.951950,80.984367 
	C79.986443,80.936943 80.881500,82.243736 81.038010,85.148209 
	C81.892357,101.003410 81.955574,101.000504 66.227127,100.999611 
	C62.739086,100.999413 59.251041,100.994278 55.297699,100.983017 
z"/>
<path fill="#4CAF50" opacity="1.000000" stroke="none" 
	d="
M173.883362,70.999542 
	C160.973892,71.000473 160.973892,71.000473 161.000351,58.284969 
	C161.015488,51.014305 161.015503,51.014301 168.365784,51.000324 
	C181.037018,50.976231 181.037033,50.976234 180.999481,63.981949 
	C180.979507,70.903084 180.979507,70.903084 173.883362,70.999542 
z"/>
</svg>