<svg version="1.1" id="Layer_1" xmlns="http://www.w3.org/2000/svg" xmlns:xlink="http://www.w3.org/1999/xlink" x="0px" y="0px"
	 width="100%" viewBox="0 0 200 200" enable-background="new 0 0 200 200" xml:space="preserve">
<path fill="#FFFFFF" opacity="1.000000" stroke="none" 
	d="
M128.000000,201.000000 
	C85.333336,201.000000 43.166672,201.000000 1.000006,201.000000 
	C1.000004,134.333344 1.000004,67.666679 1.000002,1.000015 
	C67.666656,1.000010 134.333313,1.000010 200.999969,1.000005 
	C200.999985,67.666649 200.999985,134.333298 201.000000,200.999969 
	C176.833328,201.000000 152.666672,201.000000 128.000000,201.000000 
M24.506111,101.000000 
	C20.071489,101.000000 15.636867,101.000000 11.283287,101.000000 
	C11.283287,107.983582 11.283287,114.393486 11.283287,121.181808 
	C14.646508,121.181808 17.728678,121.181808 21.180824,121.181808 
	C21.180824,124.646896 21.180824,127.732117 21.180824,131.182938 
	C24.649168,131.182938 27.734188,131.182938 31.185043,131.182938 
	C31.185043,134.651443 31.185043,137.736252 31.185043,141.187164 
	C34.655708,141.187164 37.737579,141.187164 41.189270,141.187164 
	C41.189270,144.657928 41.189270,147.739731 41.189270,151.191376 
	C44.660152,151.191376 47.741863,151.191376 51.193497,151.191376 
	C51.193497,154.660614 51.193497,157.744461 51.193497,161.195618 
	C54.662910,161.195618 57.746487,161.195618 61.197727,161.195618 
	C61.197727,164.666779 61.197727,167.748260 61.197727,171.199844 
	C64.668983,171.199844 67.750397,171.199844 71.201965,171.199844 
	C71.201965,174.671188 71.201965,177.752533 71.201965,181.204132 
	C74.673325,181.204132 77.754578,181.204132 81.209709,181.204132 
	C81.209709,184.669388 81.209709,187.751343 81.209709,190.703125 
	C94.680450,190.703125 107.754898,190.703125 121.210480,190.703125 
	C121.210480,187.324844 121.210480,184.243225 121.210480,180.791000 
	C124.678406,180.791000 127.759560,180.791000 131.211090,180.791000 
	C131.211090,177.320114 131.211090,174.238617 131.211090,170.786804 
	C134.682709,170.786804 137.763763,170.786804 141.215302,170.786804 
	C141.215302,167.315536 141.215302,164.234436 141.215302,160.782608 
	C144.686981,160.782608 147.767975,160.782608 151.219482,160.782608 
	C151.219482,157.311020 151.219482,154.230087 151.219482,150.778412 
	C154.691223,150.778412 157.772186,150.778412 161.223694,150.778412 
	C161.223694,147.306656 161.223694,144.225662 161.223694,140.774200 
	C164.695526,140.774200 167.776794,140.774200 171.227890,140.774200 
	C171.227890,137.302475 171.227890,134.221405 171.227890,130.770020 
	C174.699799,130.770020 177.781479,130.770020 181.232147,130.770020 
	C181.232147,127.298347 181.232147,124.217186 181.232147,120.761848 
	C184.699783,120.761848 187.783249,120.761848 190.682129,120.761848 
	C190.682129,113.956223 190.682129,107.549583 190.682129,100.760162 
	C180.625305,100.760162 170.882385,100.760162 160.687851,100.760162 
	C160.687851,73.946609 160.687851,47.529331 160.687851,21.348186 
	C120.697304,21.348186 80.953354,21.348186 40.819984,21.348186 
	C40.819984,47.981129 40.819984,74.382454 40.819984,101.000000 
	C35.453861,101.000000 30.477640,101.000000 24.506111,101.000000 
z"/>
<path fill="#000000" opacity="1.000000" stroke="none" 
	d="
M25.003765,101.000000 
	C30.477640,101.000000 35.453861,101.000000 40.819984,101.000000 
	C40.819984,74.382454 40.819984,47.981129 40.819984,21.348186 
	C80.953354,21.348186 120.697304,21.348186 160.687851,21.348186 
	C160.687851,47.529331 160.687851,73.946609 160.687851,100.760162 
	C170.882385,100.760162 180.625305,100.760162 190.682129,100.760162 
	C190.682129,107.549583 190.682129,113.956223 190.682129,120.761848 
	C187.783249,120.761848 184.699783,120.761848 181.232147,120.761848 
	C181.232147,124.217186 181.232147,127.298347 181.232147,130.770020 
	C177.781479,130.770020 174.699799,130.770020 171.227890,130.770020 
	C171.227890,134.221405 171.227890,137.302475 171.227890,140.774200 
	C167.776794,140.774200 164.695526,140.774200 161.223694,140.774200 
	C161.223694,144.225662 161.223694,147.306656 161.223694,150.778412 
	C157.772186,150.778412 154.691223,150.778412 151.219482,150.778412 
	C151.219482,154.230087 151.219482,157.311020 151.219482,160.782608 
	C147.767975,160.782608 144.686981,160.782608 141.215302,160.782608 
	C141.215302,164.234436 141.215302,167.315536 141.215302,170.786804 
	C137.763763,170.786804 134.682709,170.786804 131.211090,170.786804 
	C131.211090,174.238617 131.211090,177.320114 131.211090,180.791000 
	C127.759560,180.791000 124.678406,180.791000 121.210480,180.791000 
	C121.210480,184.243225 121.210480,187.324844 121.210480,190.703125 
	C107.754898,190.703125 94.680450,190.703125 81.209709,190.703125 
	C81.209709,187.751343 81.209709,184.669388 81.209709,181.204132 
	C77.754578,181.204132 74.673325,181.204132 71.201965,181.204132 
	C71.201965,177.752533 71.201965,174.671188 71.201965,171.199844 
	C67.750397,171.199844 64.668983,171.199844 61.197727,171.199844 
	C61.197727,167.748260 61.197727,164.666779 61.197727,161.195618 
	C57.746487,161.195618 54.662910,161.195618 51.193497,161.195618 
	C51.193497,157.744461 51.193497,154.660614 51.193497,151.191376 
	C47.741863,151.191376 44.660152,151.191376 41.189270,151.191376 
	C41.189270,147.739731 41.189270,144.657928 41.189270,141.187164 
	C37.737579,141.187164 34.655708,141.187164 31.185043,141.187164 
	C31.185043,137.736252 31.185043,134.651443 31.185043,131.182938 
	C27.734188,131.182938 24.649168,131.182938 21.180824,131.182938 
	C21.180824,127.732117 21.180824,124.646896 21.180824,121.181808 
	C17.728678,121.181808 14.646508,121.181808 11.283287,121.181808 
	C11.283287,114.393486 11.283287,107.983582 11.283287,101.000000 
	C15.636867,101.000000 20.071489,101.000000 25.003765,101.000000 
z"/>
</svg>