<svg version="1.1" id="Layer_1" xmlns="http://www.w3.org/2000/svg" xmlns:xlink="http://www.w3.org/1999/xlink" x="0px" y="0px"
	 width="100%" viewBox="0 0 200 200" enable-background="new 0 0 200 200" xml:space="preserve">
<path fill="#B69FDD" opacity="1.000000" stroke="none" 
	d="
M201.000000,77.000000 
	C201.000000,118.640923 201.000000,159.781845 201.000000,200.961395 
	C134.400772,200.961395 67.801521,200.961395 1.101135,200.961395 
	C1.101135,134.442581 1.101135,67.884949 1.101135,1.163660 
	C67.666336,1.163660 134.333130,1.163660 201.000000,1.163660 
	C201.000000,26.198212 201.000000,51.349106 201.000000,77.000000 
M190.975708,80.072624 
	C190.975708,57.165630 190.975708,34.258633 190.975708,11.299482 
	C174.050339,11.299482 157.669296,11.299482 140.833450,11.299482 
	C140.833450,14.727879 140.833450,17.863930 139.917023,21.000000 
	C97.017769,21.000000 54.118511,21.000000 11.321871,21.000000 
	C11.321871,74.690819 11.321871,127.732704 11.321871,180.684540 
	C71.349998,180.684540 131.055740,180.684540 190.833359,180.684540 
	C190.833359,147.246170 190.833359,114.123100 190.975708,80.072624 
z"/>
<path fill="#000000" opacity="1.000000" stroke="none" 
	d="
M190.833359,81.000023 
	C190.833359,114.123100 190.833359,147.246170 190.833359,180.684540 
	C131.055740,180.684540 71.349998,180.684540 11.321871,180.684540 
	C11.321871,127.732704 11.321871,74.690819 11.321871,21.000000 
	C54.118511,21.000000 97.017769,21.000000 140.444351,21.449829 
	C140.925613,24.933117 140.879532,27.966576 140.376068,31.000019 
	C103.667191,31.000006 67.415710,31.000006 31.076138,31.000006 
	C31.076138,34.766056 31.076138,37.917397 30.612072,41.037430 
	C27.208521,41.006126 24.269037,41.006126 21.163738,41.006126 
	C21.163738,81.299583 21.163738,121.135185 21.091175,161.427185 
	C21.018610,164.818771 21.018610,167.753967 21.018610,170.691711 
	C74.615128,170.691711 127.703583,170.691711 180.836243,170.691711 
	C180.836243,167.246643 180.836243,164.108856 180.910965,160.509521 
	C180.990448,133.754166 180.995209,107.460350 181.444946,81.097580 
	C184.871063,81.019096 187.852219,81.009560 190.833359,81.000023 
z"/>
<path fill="#FF0000" opacity="1.000000" stroke="none" 
	d="
M190.904541,80.536324 
	C187.852219,81.009560 184.871063,81.019096 180.980988,81.024536 
	C167.048004,80.958076 154.023987,80.895714 140.999939,80.389481 
	C140.944427,76.963737 140.888931,73.981850 140.906494,70.536377 
	C140.930847,57.048534 140.882156,44.024284 140.833466,31.000034 
	C140.879532,27.966576 140.925613,24.933117 140.902557,21.449818 
	C140.833450,17.863930 140.833450,14.727879 140.833450,11.299482 
	C157.669296,11.299482 174.050339,11.299482 190.975708,11.299482 
	C190.975708,34.258633 190.975708,57.165630 190.904541,80.536324 
M167.399872,21.000536 
	C165.325363,21.000536 163.250870,21.000536 161.256424,21.000536 
	C161.256424,31.379553 161.256424,40.973419 161.256424,50.688927 
	C164.568420,50.688927 167.617905,50.688927 170.992371,50.688927 
	C170.992371,41.421295 171.063599,32.459965 170.876892,23.504009 
	C170.859161,22.653379 169.226151,21.836420 167.399872,21.000536 
M161.003708,68.336761 
	C163.212646,74.097580 167.515503,69.550217 170.607712,71.006721 
	C170.607712,67.247459 170.607712,64.198326 170.607712,61.265190 
	C167.275833,61.265190 164.338455,61.265190 161.000519,61.265190 
	C161.000519,63.482044 161.000519,65.439247 161.003708,68.336761 
z"/>
<path fill="#C6C0C0" opacity="1.000000" stroke="none" 
	d="
M180.836243,160.971069 
	C180.836243,164.108856 180.836243,167.246643 180.836243,170.691711 
	C127.703583,170.691711 74.615128,170.691711 21.018610,170.691711 
	C21.018610,167.753967 21.018610,164.818771 21.537582,161.435730 
	C24.698923,160.863708 27.921181,161.595078 29.789391,160.328766 
	C31.140898,159.412704 30.314520,155.688782 31.203135,153.522079 
	C31.683111,152.351746 33.799984,151.024811 35.047733,151.143402 
	C39.952293,151.609436 41.716461,149.648361 41.019699,144.933304 
	C40.563133,141.843674 42.155701,140.583954 45.076027,141.023712 
	C49.983501,141.762711 51.709793,139.607376 51.019550,134.915253 
	C50.562229,131.806488 52.194252,130.587219 55.094040,131.024200 
	C60.025627,131.767365 61.702686,129.566162 61.019394,124.897209 
	C60.561623,121.769249 62.232632,120.590439 65.112022,121.024734 
	C70.068321,121.772301 71.686005,119.526634 71.024704,114.878464 
	C70.647163,112.224716 71.756241,110.567444 74.629822,111.036072 
	C80.122871,111.931908 81.749062,109.370483 81.027885,104.362091 
	C80.864250,103.225647 81.041893,102.040062 81.511986,100.931602 
	C85.001320,101.005608 88.041100,101.025108 91.020653,101.042107 
	C90.960419,101.039597 90.955414,100.919136 90.975174,101.383492 
	C90.994934,104.769791 90.994934,107.691734 90.994934,110.652267 
	C97.929924,110.652267 104.407166,110.652267 111.044586,110.652267 
	C111.044586,107.176376 111.044586,104.047760 111.042084,100.979370 
	C111.039581,101.039597 110.919113,101.044617 111.376480,101.024857 
	C114.868393,100.962456 117.902946,100.919823 120.955345,101.341484 
	C121.041405,109.819489 121.069847,109.682167 128.259247,111.171051 
	C129.374664,111.402054 130.932510,113.607018 130.847351,114.796120 
	C130.520859,119.354744 131.713837,121.835228 136.809311,121.021286 
	C140.109116,120.494186 141.469437,122.152428 140.979797,125.314308 
	C140.250061,130.026596 142.346298,131.662323 146.819824,131.012894 
	C150.141586,130.530670 151.468994,132.178085 150.979187,135.326157 
	C150.242661,140.059921 152.378799,141.654190 156.831665,141.012238 
	C160.167557,140.531311 161.468445,142.203583 160.978577,145.337997 
	C160.235413,150.093170 162.411102,151.646088 166.843491,151.011597 
	C170.193573,150.532043 171.467941,152.229080 170.977921,155.349808 
	C170.228409,160.123032 172.430710,161.627365 176.852997,161.025742 
	C178.159042,160.848083 179.507324,160.980652 180.836243,160.971069 
z"/>
<path fill="#E7DFDF" opacity="1.000000" stroke="none" 
	d="
M140.376068,31.000019 
	C140.882156,44.024284 140.930847,57.048534 140.458084,70.536385 
	C137.008133,70.999985 134.079636,70.999985 130.930084,70.999985 
	C130.930084,74.772491 130.930084,77.921242 130.965042,81.035004 
	C131.000000,81.000015 131.069946,80.930069 130.606689,80.961922 
	C127.114792,80.993774 124.086136,80.993774 120.930061,80.993774 
	C120.930061,84.843307 120.930061,87.956619 120.965034,91.034958 
	C121.000008,90.999992 121.070000,90.930092 120.606750,90.961929 
	C117.115944,90.993774 114.088387,90.993774 110.919113,90.993774 
	C110.919113,94.827271 110.919113,97.935944 110.919113,101.044617 
	C110.919113,101.044617 111.039581,101.039597 110.572090,101.016266 
	C103.721535,100.968330 97.338478,100.943733 90.955414,100.919136 
	C90.955414,100.919136 90.960419,101.039597 90.983810,100.580750 
	C91.007195,97.216179 91.007195,94.310448 91.007195,90.930092 
	C87.391212,90.930092 84.160606,90.930092 80.964989,90.965042 
	C80.999985,90.999992 81.069931,91.069931 81.038078,90.606689 
	C81.006226,87.114792 81.006226,84.086136 81.006226,80.930061 
	C77.156693,80.930061 74.043381,80.930061 70.965034,80.965027 
	C71.000000,81.000000 71.069931,81.069931 71.038078,80.606689 
	C71.006226,77.114792 71.006226,74.086128 71.006226,70.930061 
	C67.156578,70.930061 64.043320,70.930061 60.965034,70.965027 
	C61.000000,71.000000 61.069935,71.069931 61.038078,70.606689 
	C61.006226,67.114792 61.006226,64.086136 61.006226,60.930065 
	C57.156578,60.930065 54.043320,60.930065 50.965034,60.965034 
	C51.000000,61.000000 51.069935,61.069935 51.038078,60.606693 
	C51.006226,57.114792 51.006226,54.086132 51.006226,50.930065 
	C47.156578,50.930065 44.043320,50.930065 40.965034,50.965034 
	C41.000000,51.000000 41.069935,51.069935 41.038078,50.606693 
	C41.006226,47.114792 41.006226,44.086132 41.006226,40.930065 
	C37.156689,40.930065 34.043377,40.930065 30.966370,40.964954 
	C31.002678,40.999844 31.076138,41.068733 31.076138,41.068733 
	C31.076138,37.917397 31.076138,34.766056 31.076138,31.000006 
	C67.415710,31.000006 103.667191,31.000006 140.376068,31.000019 
z"/>
<path fill="#E7DFDF" opacity="1.000000" stroke="none" 
	d="
M81.062439,100.877098 
	C81.041893,102.040062 80.864250,103.225647 81.027885,104.362091 
	C81.749062,109.370483 80.122871,111.931908 74.629822,111.036072 
	C71.756241,110.567444 70.647163,112.224716 71.024704,114.878464 
	C71.686005,119.526634 70.068321,121.772301 65.112022,121.024734 
	C62.232632,120.590439 60.561623,121.769249 61.019394,124.897209 
	C61.702686,129.566162 60.025627,131.767365 55.094040,131.024200 
	C52.194252,130.587219 50.562229,131.806488 51.019550,134.915253 
	C51.709793,139.607376 49.983501,141.762711 45.076027,141.023712 
	C42.155701,140.583954 40.563133,141.843674 41.019699,144.933304 
	C41.716461,149.648361 39.952293,151.609436 35.047733,151.143402 
	C33.799984,151.024811 31.683111,152.351746 31.203135,153.522079 
	C30.314520,155.688782 31.140898,159.412704 29.789391,160.328766 
	C27.921181,161.595078 24.698923,160.863708 21.610147,160.979340 
	C21.163738,121.135185 21.163738,81.299583 21.163738,41.006126 
	C24.269037,41.006126 27.208521,41.006126 30.612072,41.037430 
	C31.076138,41.068733 31.002678,40.999844 30.998226,41.428246 
	C30.993776,44.885281 30.993776,47.913910 30.993776,51.069935 
	C34.843449,51.069935 37.956692,51.069935 41.069935,51.069935 
	C41.069935,51.069935 41.000000,51.000000 40.996887,51.428322 
	C40.993774,54.885281 40.993774,57.913910 40.993774,61.069935 
	C44.843449,61.069935 47.956692,61.069935 51.069935,61.069935 
	C51.069935,61.069935 51.000000,61.000000 50.996887,61.428322 
	C50.993774,64.885277 50.993774,67.913910 50.993774,71.069931 
	C54.843449,71.069931 57.956692,71.069931 61.069935,71.069931 
	C61.069935,71.069931 61.000000,71.000000 60.996887,71.428322 
	C60.993774,74.885277 60.993774,77.913910 60.993774,81.069931 
	C64.843445,81.069931 67.956688,81.069931 71.069931,81.069931 
	C71.069931,81.069931 71.000000,81.000000 70.996887,81.428322 
	C70.993774,84.885277 70.993774,87.913910 70.993774,91.069931 
	C74.843445,91.069931 77.956688,91.069931 81.069931,91.069931 
	C81.069931,91.069931 80.999985,90.999992 80.996872,91.419266 
	C81.016647,94.851395 81.039543,97.864243 81.062439,100.877098 
z"/>
<path fill="#E7DFDF" opacity="1.000000" stroke="none" 
	d="
M180.910965,160.509521 
	C179.507324,160.980652 178.159042,160.848083 176.852997,161.025742 
	C172.430710,161.627365 170.228409,160.123032 170.977921,155.349808 
	C171.467941,152.229080 170.193573,150.532043 166.843491,151.011597 
	C162.411102,151.646088 160.235413,150.093170 160.978577,145.337997 
	C161.468445,142.203583 160.167557,140.531311 156.831665,141.012238 
	C152.378799,141.654190 150.242661,140.059921 150.979187,135.326157 
	C151.468994,132.178085 150.141586,130.530670 146.819824,131.012894 
	C142.346298,131.662323 140.250061,130.026596 140.979797,125.314308 
	C141.469437,122.152428 140.109116,120.494186 136.809311,121.021286 
	C131.713837,121.835228 130.520859,119.354744 130.847351,114.796120 
	C130.932510,113.607018 129.374664,111.402054 128.259247,111.171051 
	C121.069847,109.682167 121.041405,109.819489 120.983841,100.893997 
	C121.019669,96.964844 121.044838,93.947464 121.070007,90.930092 
	C121.070000,90.930092 121.000008,90.999992 121.428329,91.003113 
	C124.885277,91.006226 127.913910,91.006226 131.069946,91.006226 
	C131.069946,87.156555 131.069946,84.043312 131.069946,80.930069 
	C131.069946,80.930069 131.000000,81.000015 131.422760,81.003120 
	C134.897003,80.948601 137.948486,80.890976 140.999954,80.833344 
	C154.023987,80.895714 167.048004,80.958076 180.536011,81.093491 
	C180.995209,107.460350 180.990448,133.754166 180.910965,160.509521 
z"/>
<path fill="#000000" opacity="1.000000" stroke="none" 
	d="
M167.871460,21.002182 
	C169.226151,21.836420 170.859161,22.653379 170.876892,23.504009 
	C171.063599,32.459965 170.992371,41.421295 170.992371,50.688927 
	C167.617905,50.688927 164.568420,50.688927 161.256424,50.688927 
	C161.256424,40.973419 161.256424,31.379553 161.256424,21.000536 
	C163.250870,21.000536 165.325363,21.000536 167.871460,21.002182 
z"/>
<path fill="#000000" opacity="1.000000" stroke="none" 
	d="
M161.002106,67.866608 
	C161.000519,65.439247 161.000519,63.482044 161.000519,61.265190 
	C164.338455,61.265190 167.275833,61.265190 170.607712,61.265190 
	C170.607712,64.198326 170.607712,67.247459 170.607712,71.006721 
	C167.515503,69.550217 163.212646,74.097580 161.002106,67.866608 
z"/>
<path fill="#000000" opacity="1.000000" stroke="none" 
	d="
M140.999939,80.389481 
	C137.948486,80.890976 134.897003,80.948601 131.387817,81.038101 
	C130.930084,77.921242 130.930084,74.772491 130.930084,70.999985 
	C134.079636,70.999985 137.008133,70.999985 140.385040,70.999977 
	C140.888931,73.981850 140.944427,76.963737 140.999939,80.389481 
z"/>
<path fill="#000000" opacity="1.000000" stroke="none" 
	d="
M90.975174,101.383492 
	C97.338478,100.943733 103.721535,100.968330 110.574593,100.956032 
	C111.044586,104.047760 111.044586,107.176376 111.044586,110.652267 
	C104.407166,110.652267 97.929924,110.652267 90.994934,110.652267 
	C90.994934,107.691734 90.994934,104.769791 90.975174,101.383492 
z"/>
<path fill="#000000" opacity="1.000000" stroke="none" 
	d="
M81.511993,100.931602 
	C81.039543,97.864243 81.016647,94.851395 80.961868,91.384315 
	C84.160606,90.930092 87.391212,90.930092 91.007195,90.930092 
	C91.007195,94.310448 91.007195,97.216179 91.044037,100.583260 
	C88.041100,101.025108 85.001320,101.005608 81.511993,100.931602 
z"/>
<path fill="#000000" opacity="1.000000" stroke="none" 
	d="
M120.606758,90.961929 
	C121.044838,93.947464 121.019669,96.964844 120.966003,100.429703 
	C117.902946,100.919823 114.868393,100.962456 111.376480,101.024857 
	C110.919113,97.935944 110.919113,94.827271 110.919113,90.993774 
	C114.088387,90.993774 117.115944,90.993774 120.606758,90.961929 
z"/>
<path fill="#000000" opacity="1.000000" stroke="none" 
	d="
M61.038078,70.606689 
	C57.956692,71.069931 54.843449,71.069931 50.993774,71.069931 
	C50.993774,67.913910 50.993774,64.885277 50.961922,61.393356 
	C54.043320,60.930065 57.156578,60.930065 61.006226,60.930065 
	C61.006226,64.086136 61.006226,67.114792 61.038078,70.606689 
z"/>
<path fill="#000000" opacity="1.000000" stroke="none" 
	d="
M71.038078,80.606689 
	C67.956688,81.069931 64.843445,81.069931 60.993774,81.069931 
	C60.993774,77.913910 60.993774,74.885277 60.961922,71.393356 
	C64.043320,70.930061 67.156578,70.930061 71.006226,70.930061 
	C71.006226,74.086128 71.006226,77.114792 71.038078,80.606689 
z"/>
<path fill="#000000" opacity="1.000000" stroke="none" 
	d="
M81.038078,90.606689 
	C77.956688,91.069931 74.843445,91.069931 70.993774,91.069931 
	C70.993774,87.913910 70.993774,84.885277 70.961922,81.393356 
	C74.043381,80.930061 77.156693,80.930061 81.006226,80.930061 
	C81.006226,84.086136 81.006226,87.114792 81.038078,90.606689 
z"/>
<path fill="#000000" opacity="1.000000" stroke="none" 
	d="
M130.606689,80.961922 
	C131.069946,84.043312 131.069946,87.156555 131.069946,91.006226 
	C127.913910,91.006226 124.885277,91.006226 121.393356,91.038078 
	C120.930061,87.956619 120.930061,84.843307 120.930061,80.993774 
	C124.086136,80.993774 127.114792,80.993774 130.606689,80.961922 
z"/>
<path fill="#000000" opacity="1.000000" stroke="none" 
	d="
M51.038078,60.606693 
	C47.956692,61.069935 44.843449,61.069935 40.993774,61.069935 
	C40.993774,57.913910 40.993774,54.885281 40.961922,51.393356 
	C44.043320,50.930065 47.156578,50.930065 51.006226,50.930065 
	C51.006226,54.086132 51.006226,57.114792 51.038078,60.606693 
z"/>
<path fill="#000000" opacity="1.000000" stroke="none" 
	d="
M41.038078,50.606693 
	C37.956692,51.069935 34.843449,51.069935 30.993776,51.069935 
	C30.993776,47.913910 30.993776,44.885281 30.961920,41.393356 
	C34.043377,40.930065 37.156689,40.930065 41.006226,40.930065 
	C41.006226,44.086132 41.006226,47.114792 41.038078,50.606693 
z"/>
</svg>