<svg version="1.1" id="Layer_1" xmlns="http://www.w3.org/2000/svg" xmlns:xlink="http://www.w3.org/1999/xlink" x="0px" y="0px"
	 width="100%" viewBox="0 0 108 100" enable-background="new 0 0 108 100" xml:space="preserve">
<path fill="#F5DEB3" opacity="1.000000" stroke="none" 
	d="
M69.000000,101.000000 
	C46.000000,101.000000 23.500000,101.000000 1.000000,101.000000 
	C1.000000,67.666664 1.000000,34.333332 1.000000,1.000000 
	C37.000000,1.000000 73.000000,1.000000 109.000000,1.000000 
	C109.000000,34.333332 109.000000,67.666664 109.000000,101.000000 
	C95.833336,101.000000 82.666664,101.000000 69.000000,101.000000 
M68.389130,90.993416 
	C69.211456,89.487656 70.033783,87.981895 71.059860,86.103050 
	C71.909782,86.038490 73.332344,85.930428 74.821182,85.817337 
	C74.959419,84.084747 75.072998,82.661102 75.190620,81.186867 
	C76.922981,81.042358 78.346382,80.923622 79.805565,80.801903 
	C79.956070,79.069298 80.079689,77.646149 80.205170,76.201538 
	C81.938423,76.045280 83.361305,75.917007 84.791985,75.788033 
	C84.953705,74.053864 85.086372,72.631264 85.219002,71.209091 
	C86.953362,71.042114 88.375664,70.905182 89.787239,70.769279 
	C89.958588,69.039093 90.099411,67.617081 90.238098,66.216652 
	C91.967850,66.040558 93.389900,65.895790 94.779640,65.754311 
	C94.960548,64.024063 95.109154,62.602692 95.253334,61.223667 
	C96.983116,61.038242 98.403725,60.885956 99.773010,60.739174 
	C99.962311,59.013584 100.117775,57.596386 100.268997,56.217960 
	C101.989853,56.039295 103.395294,55.893379 104.694611,55.758480 
	C104.694611,43.999439 104.694611,32.593006 104.694611,20.951962 
	C101.432053,20.951962 98.473129,20.951962 95.294853,20.951962 
	C95.073036,19.203796 94.876923,17.658218 94.692200,16.202366 
	C92.956039,16.006733 91.541389,15.847328 90.186287,15.694633 
	C90.010414,13.959079 89.868378,12.557474 89.726952,11.161861 
	C83.059814,11.161861 76.773598,11.161861 70.259720,11.161861 
	C70.056870,12.802095 69.866325,14.342802 69.650993,16.083969 
	C66.365356,16.083969 63.407490,16.083969 60.062077,16.083969 
	C60.062077,17.732025 60.062077,19.138428 60.062077,20.936367 
	C58.289581,20.936367 56.866001,20.936367 55.327847,20.936367 
	C55.053944,22.846312 54.830898,24.401598 54.626461,25.827129 
	C53.013268,25.827129 51.723576,25.827129 50.042858,25.827129 
	C50.042858,24.251375 50.042858,22.838135 50.042858,21.036366 
	C48.244881,21.036366 46.831543,21.036366 45.029865,21.036366 
	C45.029865,19.238382 45.029865,17.825146 45.029865,16.023500 
	C43.232941,16.023500 41.821190,16.023500 40.338318,16.023500 
	C40.056194,14.132245 39.827358,12.598201 39.618198,11.196062 
	C32.946110,11.196062 26.656904,11.196062 19.988003,11.196062 
	C19.988003,12.796893 19.988003,14.206750 19.988003,16.004662 
	C18.199888,16.004662 16.790380,16.004662 15.366475,16.004662 
	C15.058658,17.913954 14.812040,19.443636 14.532510,21.177475 
	C11.260966,21.177475 8.312867,21.177475 5.216912,21.177475 
	C5.216912,32.858551 5.216912,44.273865 5.216912,55.895103 
	C6.843082,55.975246 8.264683,56.045307 10.057409,56.133659 
	C10.057409,57.854664 10.057409,59.266445 10.057409,60.896122 
	C11.857112,60.977146 13.277880,61.041107 14.890786,61.113720 
	C14.975186,62.857903 15.044120,64.282440 15.121527,65.882111 
	C16.870562,65.973526 18.292049,66.047829 19.872843,66.130447 
	C19.971443,67.877480 20.051687,69.299263 20.139948,70.863075 
	C21.884476,70.969231 23.306520,71.055756 24.853289,71.149879 
	C24.966991,72.891541 25.059841,74.313797 25.159718,75.843681 
	C26.898670,75.964760 28.321095,76.063797 29.834482,76.169174 
	C29.962631,77.905869 30.067596,79.328400 30.178080,80.825684 
	C31.913109,80.960579 33.335701,81.071175 34.817429,81.186371 
	C34.958710,82.920403 35.074623,84.343010 35.194118,85.809662 
	C36.926498,85.956909 38.349754,86.077881 39.803318,86.201431 
	C39.955681,87.934708 40.080688,89.356850 40.207993,90.805069 
	C41.939224,90.955872 43.357933,91.079453 44.867199,91.210915 
	C44.968918,92.940651 45.051735,94.348984 45.133446,95.738403 
	C51.972347,95.738403 58.398964,95.738403 63.022835,95.738403 
	C65.157913,93.472603 66.322853,92.236343 68.389130,90.993416 
z"/>
<path fill="#000000" opacity="1.000000" stroke="none" 
	d="
M67.938461,90.996750 
	C66.322853,92.236343 65.157913,93.472603 63.022835,95.738403 
	C58.398964,95.738403 51.972347,95.738403 45.133446,95.738403 
	C45.051735,94.348984 44.968918,92.940651 44.867199,91.210915 
	C43.357933,91.079453 41.939224,90.955872 40.207993,90.805069 
	C40.080688,89.356850 39.955681,87.934708 39.803318,86.201431 
	C38.349754,86.077881 36.926498,85.956909 35.194118,85.809662 
	C35.074623,84.343010 34.958710,82.920403 34.817429,81.186371 
	C33.335701,81.071175 31.913109,80.960579 30.178080,80.825684 
	C30.067596,79.328400 29.962631,77.905869 29.834482,76.169174 
	C28.321095,76.063797 26.898670,75.964760 25.159718,75.843681 
	C25.059841,74.313797 24.966991,72.891541 24.853289,71.149879 
	C23.306520,71.055756 21.884476,70.969231 20.139948,70.863075 
	C20.051687,69.299263 19.971443,67.877480 19.872843,66.130447 
	C18.292049,66.047829 16.870562,65.973526 15.121527,65.882111 
	C15.044120,64.282440 14.975186,62.857903 14.890786,61.113720 
	C13.277880,61.041107 11.857112,60.977146 10.057409,60.896122 
	C10.057409,59.266445 10.057409,57.854664 10.057409,56.133659 
	C8.264683,56.045307 6.843082,55.975246 5.216912,55.895103 
	C5.216912,44.273865 5.216912,32.858551 5.216912,21.177475 
	C8.312867,21.177475 11.260966,21.177475 14.532510,21.177475 
	C14.812040,19.443636 15.058658,17.913954 15.366475,16.004662 
	C16.790380,16.004662 18.199888,16.004662 19.988003,16.004662 
	C19.988003,14.206750 19.988003,12.796893 19.988003,11.196062 
	C26.656904,11.196062 32.946110,11.196062 39.618198,11.196062 
	C39.827358,12.598201 40.056194,14.132245 40.338318,16.023500 
	C41.821190,16.023500 43.232941,16.023500 45.029865,16.023500 
	C45.029865,17.825146 45.029865,19.238382 45.029865,21.036366 
	C46.831543,21.036366 48.244881,21.036366 50.042858,21.036366 
	C50.042858,22.838135 50.042858,24.251375 50.042858,25.827129 
	C51.723576,25.827129 53.013268,25.827129 54.626461,25.827129 
	C54.830898,24.401598 55.053944,22.846312 55.327847,20.936367 
	C56.866001,20.936367 58.289581,20.936367 60.062077,20.936367 
	C60.062077,19.138428 60.062077,17.732025 60.062077,16.083969 
	C63.407490,16.083969 66.365356,16.083969 69.650993,16.083969 
	C69.866325,14.342802 70.056870,12.802095 70.259720,11.161861 
	C76.773598,11.161861 83.059814,11.161861 89.726952,11.161861 
	C89.868378,12.557474 90.010414,13.959079 90.186287,15.694633 
	C91.541389,15.847328 92.956039,16.006733 94.692200,16.202366 
	C94.876923,17.658218 95.073036,19.203796 95.294853,20.951962 
	C98.473129,20.951962 101.432053,20.951962 104.694611,20.951962 
	C104.694611,32.593006 104.694611,43.999439 104.694611,55.758480 
	C103.395294,55.893379 101.989853,56.039295 100.268997,56.217960 
	C100.117775,57.596386 99.962311,59.013584 99.773010,60.739174 
	C98.403725,60.885956 96.983116,61.038242 95.253334,61.223667 
	C95.109154,62.602692 94.960548,64.024063 94.779640,65.754311 
	C93.389900,65.895790 91.967850,66.040558 90.238098,66.216652 
	C90.099411,67.617081 89.958588,69.039093 89.787239,70.769279 
	C88.375664,70.905182 86.953362,71.042114 85.219002,71.209091 
	C85.086372,72.631264 84.953705,74.053864 84.791985,75.788033 
	C83.361305,75.917007 81.938423,76.045280 80.205170,76.201538 
	C80.079689,77.646149 79.956070,79.069298 79.805565,80.801903 
	C78.346382,80.923622 76.922981,81.042358 75.190620,81.186867 
	C75.072998,82.661102 74.959419,84.084747 74.821182,85.817337 
	C73.332344,85.930428 71.909782,86.038490 71.059860,86.103050 
	C70.033783,87.981895 69.211456,89.487656 67.938461,90.996750 
M18.209368,26.355375 
	C15.639649,26.703470 13.069930,27.051565 10.309448,27.425499 
	C10.309448,35.224285 10.309448,42.962124 10.309448,50.989357 
	C14.530752,50.044285 15.501041,52.366611 15.207564,55.600048 
	C16.969208,55.919437 18.379293,56.175083 19.726751,56.419380 
	C19.945120,57.991474 20.123020,59.272232 20.319361,60.685753 
	C21.883978,60.921597 23.296846,61.134563 24.739891,61.352081 
	C24.927362,62.910145 25.081642,64.192360 25.268951,65.749092 
	C26.792284,65.925941 28.211964,66.090759 29.612453,66.253349 
	C29.918316,67.963493 30.170431,69.373138 30.413052,70.729698 
	C31.984640,70.943352 33.265690,71.117508 34.691753,71.311378 
	C34.922951,72.876778 35.131653,74.289879 35.345734,75.739372 
	C36.901215,75.926132 38.184265,76.080177 39.744392,76.267487 
	C39.920212,77.786583 40.084503,79.206093 40.247643,80.615654 
	C41.956367,80.917099 43.366337,81.165833 44.732269,81.406807 
	C44.941799,82.977753 45.112675,84.258911 45.305180,85.702209 
	C46.867702,85.925056 48.278873,86.126312 49.601456,86.314941 
	C49.935131,88.025955 50.206753,89.418770 50.459385,90.714218 
	C53.749657,90.714218 56.687386,90.714218 59.600983,90.714218 
	C59.920391,89.023979 60.187130,87.612465 60.439350,86.277771 
	C61.998585,86.052803 63.279629,85.867973 64.681114,85.665764 
	C64.920372,84.106346 65.137093,82.693810 65.357079,81.260002 
	C66.919121,81.071205 68.201309,80.916229 69.751892,80.728821 
	C69.931473,79.199944 70.098251,77.780052 70.261421,76.390854 
	C71.972832,76.079552 73.382004,75.823227 74.725800,75.578796 
	C74.945770,74.005936 75.124771,72.725998 75.321938,71.316154 
	C76.886307,71.078819 78.299095,70.864487 79.740028,70.645889 
	C79.927467,69.089546 80.081970,67.806686 80.269470,66.249786 
	C81.803810,66.071320 83.217949,65.906837 84.611534,65.744743 
	C84.918472,64.035873 85.171814,62.625393 85.415039,61.271252 
	C86.986847,61.056091 88.267799,60.880741 89.689812,60.686085 
	C89.922516,59.120922 90.132599,57.707920 90.347763,56.260723 
	C91.905548,56.073330 93.187698,55.919094 94.746948,55.731522 
	C94.920189,54.212299 95.081825,52.794823 95.243889,51.373547 
	C96.948746,51.086571 98.348228,50.850998 99.721512,50.619839 
	C99.721512,42.334064 99.721512,34.407742 99.721512,26.059229 
	C96.525169,26.059229 93.586662,26.059229 90.341385,26.059229 
	C90.114365,24.295319 89.932434,22.881819 89.727974,21.293230 
	C88.139381,21.072943 86.729103,20.877380 85.396767,20.692627 
	C85.068123,18.983189 84.800194,17.589533 84.550087,16.288628 
	C81.262360,16.288628 78.327660,16.288628 75.389145,16.288628 
	C75.084930,17.964352 74.831024,19.362967 74.513222,21.113535 
	C71.313194,21.113535 68.373077,21.113535 65.391586,21.113535 
	C65.086456,22.918711 64.847847,24.330355 64.610001,25.737473 
	C63.058613,25.932928 61.777599,26.094318 60.248806,26.286926 
	C60.066208,27.817234 59.897305,29.232771 59.712044,30.785366 
	C54.782768,30.785366 50.178860,30.785366 45.291313,30.785366 
	C45.093605,29.204390 44.917446,27.795755 44.740086,26.377516 
	C43.053387,26.084915 41.643425,25.840321 40.264271,25.601070 
	C40.060776,24.033085 39.894512,22.751991 39.704304,21.286388 
	C38.143192,21.072340 36.731667,20.878801 35.396275,20.695702 
	C35.068382,18.984692 34.801266,17.590847 34.550228,16.280869 
	C31.260771,16.280869 28.322712,16.280869 25.396683,16.280869 
	C25.083027,17.967596 24.819935,19.382414 24.584358,20.649258 
	C22.894222,20.975023 21.502579,21.243256 19.999216,21.533020 
	C19.999216,23.176472 19.999216,24.504986 19.501358,25.999701 
	C19.335251,26.054634 19.169144,26.109566 18.209368,26.355375 
z"/>
<path fill="#CE1313" opacity="1.000000" stroke="none" 
	d="
M19.999216,25.833498 
	C19.999216,24.504986 19.999216,23.176472 19.999216,21.533020 
	C21.502579,21.243256 22.894222,20.975023 24.584358,20.649258 
	C24.819935,19.382414 25.083027,17.967596 25.396683,16.280869 
	C28.322712,16.280869 31.260771,16.280869 34.550228,16.280869 
	C34.801266,17.590847 35.068382,18.984692 35.396275,20.695702 
	C36.731667,20.878801 38.143192,21.072340 39.704304,21.286388 
	C39.894512,22.751991 40.060776,24.033085 40.264271,25.601070 
	C41.643425,25.840321 43.053387,26.084915 44.740086,26.377516 
	C44.917446,27.795755 45.093605,29.204390 45.291313,30.785366 
	C50.178860,30.785366 54.782768,30.785366 59.712044,30.785366 
	C59.897305,29.232771 60.066208,27.817234 60.248806,26.286926 
	C61.777599,26.094318 63.058613,25.932928 64.610001,25.737473 
	C64.847847,24.330355 65.086456,22.918711 65.391586,21.113535 
	C68.373077,21.113535 71.313194,21.113535 74.513222,21.113535 
	C74.831024,19.362967 75.084930,17.964352 75.389145,16.288628 
	C78.327660,16.288628 81.262360,16.288628 84.550087,16.288628 
	C84.800194,17.589533 85.068123,18.983189 85.396767,20.692627 
	C86.729103,20.877380 88.139381,21.072943 89.727974,21.293230 
	C89.932434,22.881819 90.114365,24.295319 90.341385,26.059229 
	C93.586662,26.059229 96.525169,26.059229 99.721512,26.059229 
	C99.721512,34.407742 99.721512,42.334064 99.721512,50.619839 
	C98.348228,50.850998 96.948746,51.086571 95.243889,51.373547 
	C95.081825,52.794823 94.920189,54.212299 94.746948,55.731522 
	C93.187698,55.919094 91.905548,56.073330 90.347763,56.260723 
	C90.132599,57.707920 89.922516,59.120922 89.689812,60.686085 
	C88.267799,60.880741 86.986847,61.056091 85.415039,61.271252 
	C85.171814,62.625393 84.918472,64.035873 84.611534,65.744743 
	C83.217949,65.906837 81.803810,66.071320 80.269470,66.249786 
	C80.081970,67.806686 79.927467,69.089546 79.740028,70.645889 
	C78.299095,70.864487 76.886307,71.078819 75.321938,71.316154 
	C75.124771,72.725998 74.945770,74.005936 74.725800,75.578796 
	C73.382004,75.823227 71.972832,76.079552 70.261421,76.390854 
	C70.098251,77.780052 69.931473,79.199944 69.751892,80.728821 
	C68.201309,80.916229 66.919121,81.071205 65.357079,81.260002 
	C65.137093,82.693810 64.920372,84.106346 64.681114,85.665764 
	C63.279629,85.867973 61.998585,86.052803 60.439350,86.277771 
	C60.187130,87.612465 59.920391,89.023979 59.600983,90.714218 
	C56.687386,90.714218 53.749657,90.714218 50.459385,90.714218 
	C50.206753,89.418770 49.935131,88.025955 49.601456,86.314941 
	C48.278873,86.126312 46.867702,85.925056 45.305180,85.702209 
	C45.112675,84.258911 44.941799,82.977753 44.732269,81.406807 
	C43.366337,81.165833 41.956367,80.917099 40.247643,80.615654 
	C40.084503,79.206093 39.920212,77.786583 39.744392,76.267487 
	C38.184265,76.080177 36.901215,75.926132 35.345734,75.739372 
	C35.131653,74.289879 34.922951,72.876778 34.691753,71.311378 
	C33.265690,71.117508 31.984640,70.943352 30.413052,70.729698 
	C30.170431,69.373138 29.918316,67.963493 29.612453,66.253349 
	C28.211964,66.090759 26.792284,65.925941 25.268951,65.749092 
	C25.081642,64.192360 24.927362,62.910145 24.739891,61.352081 
	C23.296846,61.134563 21.883978,60.921597 20.319361,60.685753 
	C20.123020,59.272232 19.945120,57.991474 19.726751,56.419380 
	C18.379293,56.175083 16.969208,55.919437 15.207564,55.600048 
	C15.501041,52.366611 14.530752,50.044285 10.309448,50.989357 
	C10.309448,42.962124 10.309448,35.224285 10.309448,27.425499 
	C13.069930,27.051565 15.639649,26.703470 18.777414,26.612373 
	C19.569983,28.159163 19.794504,29.448954 20.019550,30.741755 
	C17.977581,30.975876 16.579277,31.136198 15.288581,31.284182 
	C15.288581,34.702633 15.288581,37.774002 15.288581,41.078899 
	C17.009480,40.943813 18.420444,40.833054 19.767212,40.727333 
	C19.973656,38.981693 20.140541,37.570553 20.298725,36.232975 
	C22.020067,36.027344 23.431814,35.858692 24.769964,35.698837 
	C24.975094,33.977131 25.143236,32.565868 25.302723,31.227243 
	C27.023476,31.023111 28.431456,30.856085 30.056360,30.663322 
	C29.934441,28.968508 29.834612,27.580776 29.708918,25.833498 
	C26.246376,25.833498 23.122795,25.833498 19.999216,25.833498 
z"/>
<path fill="#FFFFFF" opacity="1.000000" stroke="none" 
	d="
M19.750286,25.916599 
	C23.122795,25.833498 26.246376,25.833498 29.708918,25.833498 
	C29.834612,27.580776 29.934441,28.968508 30.056360,30.663322 
	C28.431456,30.856085 27.023476,31.023111 25.302723,31.227243 
	C25.143236,32.565868 24.975094,33.977131 24.769964,35.698837 
	C23.431814,35.858692 22.020067,36.027344 20.298725,36.232975 
	C20.140541,37.570553 19.973656,38.981693 19.767212,40.727333 
	C18.420444,40.833054 17.009480,40.943813 15.288581,41.078899 
	C15.288581,37.774002 15.288581,34.702633 15.288581,31.284182 
	C16.579277,31.136198 17.977581,30.975876 20.019550,30.741755 
	C19.794504,29.448954 19.569983,28.159163 19.174248,26.516937 
	C19.169144,26.109566 19.335251,26.054634 19.750286,25.916599 
z"/>
</svg>