<svg version="1.1" id="Layer_1" xmlns="http://www.w3.org/2000/svg" xmlns:xlink="http://www.w3.org/1999/xlink" x="0px" y="0px"
	 width="100%" viewBox="0 0 400 400" enable-background="new 0 0 400 400" xml:space="preserve">
<path fill="#81856D" opacity="1.000000" stroke="none" 
	d="
M101.000000,401.000000 
	C67.677147,401.000000 34.354290,401.000000 1.015718,401.000000 
	C1.015718,267.719055 1.015718,134.438126 1.015718,1.078589 
	C134.238983,1.078589 267.478027,1.078589 400.858521,1.078589 
	C400.858521,134.333221 400.858521,267.666595 400.858521,401.000000 
	C371.251648,401.000000 341.594482,401.000000 311.468658,400.545227 
	C310.993378,397.043976 310.986755,393.997498 310.982117,390.498352 
	C310.976654,387.011383 310.969238,383.977112 310.980865,380.490143 
	C310.999329,376.998779 310.998749,373.960144 310.994690,370.957794 
	C310.991211,370.994110 310.918732,370.985413 311.381836,370.997070 
	C314.769836,371.008728 317.694733,371.008728 320.998505,371.008728 
	C320.998505,367.165344 320.978943,364.037720 321.003815,360.910461 
	C321.030243,357.590393 321.098877,354.270691 321.596375,350.965210 
	C323.874390,350.983459 325.879608,351.452484 327.483246,350.850983 
	C328.887299,350.324341 330.809143,348.619385 330.840149,347.392944 
	C331.104889,336.914368 331.002930,326.426147 330.982513,315.940887 
	C330.976196,312.693726 329.299072,311.033997 326.039001,311.012634 
	C324.374756,311.001709 322.710358,311.006927 321.030487,310.547791 
	C320.972290,301.079376 320.972290,301.079620 312.158661,300.967590 
	C311.827728,300.963348 311.497009,300.945343 311.113342,300.485352 
	C311.010803,296.992310 310.961090,293.947723 310.946411,290.456909 
	C310.934082,287.003479 310.886719,283.996246 310.898987,280.524475 
	C310.920654,270.381622 310.882721,260.703278 310.902649,250.572479 
	C310.928101,247.087509 310.895721,244.055008 310.917847,240.555267 
	C310.930939,214.062103 310.889557,188.036209 310.902100,161.553543 
	C310.920380,157.720291 310.884674,154.343781 310.904510,150.504059 
	C310.960052,143.846191 310.960052,137.651550 310.960052,130.912521 
	C307.227325,130.912521 304.133362,130.912521 301.032349,130.948822 
	C301.025269,130.985138 301.092560,130.954346 301.059052,130.507416 
	C300.999756,127.078819 300.973999,124.097176 300.962280,120.651855 
	C300.944061,109.558281 302.117737,111.152977 291.967804,111.003471 
	C291.641296,110.998665 291.314606,111.005737 290.990234,111.031921 
	C290.992462,111.056572 290.943207,111.061653 290.960846,110.599854 
	C290.949493,99.404495 292.033142,101.197365 282.003845,100.994186 
	C281.678680,100.987595 281.353455,100.983055 281.018921,100.522369 
	C280.767426,90.056328 282.719177,91.037292 271.916840,91.020592 
	C271.591522,91.020088 271.266113,91.042870 270.942322,91.025879 
	C270.943878,90.996956 271.001801,90.995895 271.002136,90.539612 
	C270.835144,79.939987 272.519684,81.055687 261.873596,81.018036 
	C261.547272,81.016884 261.220856,81.034851 260.447815,81.026138 
	C257.010345,81.054596 254.019577,81.100838 250.577057,81.094254 
	C247.112595,80.985382 244.099884,80.929337 241.050049,80.892532 
	C241.012894,80.911766 241.048981,80.987244 241.026550,80.531219 
	C241.004120,77.177368 241.004120,74.279541 241.004120,71.176476 
	C237.219376,71.176476 234.129044,71.176476 230.586304,71.114799 
	C227.097610,71.086601 224.061325,71.120079 220.557983,71.097153 
	C213.398941,71.073509 206.706924,71.106270 199.548828,71.081467 
	C193.047653,71.056824 187.012573,71.089737 180.523895,71.074356 
	C177.188965,71.026054 174.307663,71.026054 170.925903,71.026054 
	C170.925903,74.802666 170.925903,77.884254 170.960968,80.961662 
	C170.996033,80.957489 170.946304,80.907341 170.494385,80.938873 
	C167.174850,80.970406 164.307251,80.970406 160.883347,80.970406 
	C160.883347,84.800507 160.883347,87.862328 160.903870,90.953049 
	C160.924377,90.981941 160.981033,90.939346 160.525452,90.962997 
	C157.174667,90.986656 154.279434,90.986656 150.939789,90.986656 
	C150.939789,94.799774 150.939789,97.894066 150.492188,100.990967 
	C147.062119,101.020470 144.079651,101.047363 140.632629,101.050034 
	C129.263992,101.015060 131.226685,100.067619 130.982330,109.985298 
	C130.974319,110.311020 130.969650,110.636826 130.510834,110.973236 
	C119.456390,111.124229 121.198532,109.813385 120.966545,120.011734 
	C120.959167,120.336067 120.948418,120.660324 120.489433,120.988678 
	C109.911896,121.166451 111.075562,119.509262 111.012886,130.065079 
	C111.010963,130.389465 111.028145,130.713974 111.027939,131.504333 
	C111.018394,138.319916 111.017326,144.669586 111.007599,151.016327 
	C110.998932,151.013397 110.995918,150.995667 110.539558,150.995865 
	C100.055267,151.197113 101.017624,149.304443 101.032570,160.138214 
	C101.033020,160.464859 101.063049,160.791473 101.051613,161.578583 
	C101.072716,175.030319 101.121498,188.021561 101.111885,201.477203 
	C101.089882,208.290161 101.126282,214.638748 101.104492,221.453339 
	C101.046303,228.129639 101.046303,234.339951 101.046303,241.101990 
	C104.773430,241.101990 107.874657,241.101990 110.978546,241.564240 
	C110.982620,251.657333 110.984032,261.288177 110.529266,270.942505 
	C107.176857,270.966034 104.280640,270.966034 101.146400,270.966034 
	C101.146400,274.772400 101.146400,277.862946 101.094452,281.405579 
	C101.023483,284.879303 101.004471,287.900848 100.529068,290.945282 
	C97.170685,290.968140 94.268700,290.968140 91.006516,290.968140 
	C91.006516,294.788635 91.006516,297.890381 90.549255,300.994568 
	C89.104744,300.998260 88.094070,301.138824 87.134117,300.977570 
	C81.982277,300.112030 80.482925,302.408875 80.917580,307.310303 
	C81.323067,311.882874 81.034271,316.516998 81.034889,321.584656 
	C81.026985,331.660797 81.035286,341.276337 81.031113,351.356201 
	C81.127594,362.151062 79.526115,360.959320 90.334000,360.963989 
	C90.500031,360.964050 90.666061,360.953247 90.889397,361.399139 
	C90.982414,364.863708 91.018127,367.876648 91.040207,371.364838 
	C91.017349,374.966705 90.956329,378.094238 91.008224,381.219879 
	C91.193420,392.374298 89.204559,390.918793 101.028061,390.989075 
	C101.010582,391.006165 101.013206,390.957367 101.009888,391.415527 
	C101.004379,394.915802 101.002190,397.957916 101.000000,401.000000 
z"/>
<path fill="#FAC0E1" opacity="1.000000" stroke="none" 
	d="
M281.000000,401.000000 
	C231.312439,401.000000 181.624878,401.000000 131.469727,400.543304 
	C130.964005,397.029572 130.925858,393.972534 130.940338,390.467285 
	C131.022415,387.034180 131.051865,384.049347 131.534973,381.033081 
	C134.904663,381.001678 137.820694,381.001678 140.759094,381.001678 
	C140.759094,374.065948 140.759094,367.692841 140.759094,361.229523 
	C137.456299,361.229523 134.403152,361.229523 131.218750,361.229523 
	C131.218750,368.037781 131.218750,374.613953 130.745941,381.102417 
	C127.210297,381.047394 124.147446,381.080170 120.625549,381.074463 
	C117.098923,381.009705 114.031342,380.983429 110.980347,380.502197 
	C110.996925,377.163361 110.996925,374.279510 110.996925,370.917450 
	C107.420280,370.917450 104.214584,370.917450 101.009453,370.953491 
	C101.010017,370.989532 101.082008,370.985931 101.048462,370.533569 
	C100.955734,367.056335 100.896545,364.031464 100.909332,360.556915 
	C100.930283,357.074463 100.879257,354.041748 100.901932,350.560974 
	C100.994102,347.090912 101.012573,344.068939 101.488312,341.026886 
	C104.944832,341.006836 107.944092,341.006836 110.839874,341.006836 
	C110.839874,337.193726 110.839874,334.113739 110.910461,330.583862 
	C111.014580,327.109406 111.048096,324.084808 111.531067,321.037506 
	C114.994301,320.955231 118.008087,320.895630 121.470306,320.907562 
	C124.949699,320.928467 127.980644,320.877869 131.473969,320.902649 
	C138.207916,320.978058 144.479462,320.978058 151.082092,320.978058 
	C151.082092,317.335236 151.082092,314.198547 151.530853,311.035278 
	C154.990082,310.951294 158.000534,310.893799 161.473343,310.911438 
	C168.300125,310.969727 174.664536,310.952850 181.015915,311.399719 
	C181.002869,314.790894 181.002869,317.718323 181.002869,320.829529 
	C194.636444,320.829529 207.821930,320.829529 221.461182,320.903778 
	C224.811127,320.978027 227.707275,320.978027 230.997894,320.978027 
	C230.997894,317.387939 230.997894,314.166199 231.465851,310.968994 
	C238.284393,310.943207 244.634949,310.892883 251.431717,310.917053 
	C254.879166,311.006805 257.880432,311.022034 260.933014,311.492310 
	C260.984344,314.881195 260.984344,317.815063 260.984344,321.040894 
	C271.354767,321.040894 281.153320,321.040894 290.974243,321.497314 
	C290.996643,324.891541 290.996643,327.829346 290.996643,331.052795 
	C294.683990,331.052795 297.819611,331.052795 300.975281,331.508667 
	C300.995331,334.899750 300.995331,337.834961 300.995331,341.066254 
	C304.689728,341.066254 307.823883,341.066254 310.977844,341.516479 
	C311.055237,344.981232 311.112823,347.995819 311.095886,351.472839 
	C310.987152,358.285370 310.952942,364.635376 310.918732,370.985413 
	C310.918732,370.985413 310.991211,370.994110 310.536438,370.994629 
	C307.078827,370.995148 304.076019,370.995148 301.035583,370.995148 
	C301.035583,374.793732 301.035583,377.875671 300.576569,380.969025 
	C297.047852,381.024689 293.978119,381.068939 290.459595,381.063293 
	C286.985535,381.031342 283.960297,381.049255 280.967285,380.604065 
	C280.999512,377.214813 280.999512,374.288666 280.999512,371.362854 
	C277.397583,371.362854 274.233276,371.362854 271.337677,371.362854 
	C271.337677,374.794098 271.337677,377.849854 271.337677,380.932678 
	C274.810913,380.932678 277.940308,380.932678 281.039734,381.387329 
	C281.044769,384.863922 281.079742,387.885895 281.075012,391.366211 
	C281.023529,394.883057 281.011749,397.941528 281.000000,401.000000 
z"/>
<path fill="#BD8A74" opacity="1.000000" stroke="none" 
	d="
M290.908417,381.113220 
	C293.978119,381.068939 297.047852,381.024689 301.028137,380.986664 
	C304.946411,380.976196 307.954132,380.959503 310.961823,380.942841 
	C310.969238,383.977112 310.976654,387.011383 310.527527,390.513916 
	C301.005463,391.021820 301.005463,391.021820 301.001465,400.022858 
	C301.001312,400.348572 301.000488,400.674286 301.000000,401.000000 
	C294.645599,401.000000 288.291199,401.000000 281.468384,401.000000 
	C281.011749,397.941528 281.023529,394.883057 281.523926,391.402161 
	C284.905823,390.979767 287.799072,390.979767 290.908417,390.979767 
	C290.908417,387.291107 290.908417,384.202179 290.908417,381.113220 
z"/>
<path fill="#BA8C72" opacity="1.000000" stroke="none" 
	d="
M110.963768,380.957153 
	C114.031342,380.983429 117.098923,381.009705 120.588699,381.523590 
	C121.010910,384.907928 121.010910,387.804657 121.010910,390.915497 
	C124.704613,390.915497 127.796158,390.915497 130.887711,390.915497 
	C130.925858,393.972534 130.964005,397.029572 131.001068,400.543304 
	C124.645599,401.000000 118.291206,401.000000 111.469238,400.542908 
	C111.003304,391.058777 111.003304,391.058990 101.992317,390.985779 
	C101.665886,390.983124 101.339577,390.967133 101.013206,390.957367 
	C101.013206,390.957367 101.010582,391.006165 101.016098,390.535919 
	C101.023216,387.023499 101.024803,383.981323 101.476379,380.964600 
	C104.938843,380.979126 107.951302,380.968170 110.963768,380.957153 
z"/>
<path fill="#776857" opacity="1.000000" stroke="none" 
	d="
M301.454102,401.000000 
	C301.000488,400.674286 301.001312,400.348572 301.001465,400.022858 
	C301.005463,391.021820 301.005463,391.021820 310.525574,390.966583 
	C310.986755,393.997498 310.993378,397.043976 311.000000,400.545227 
	C307.969391,401.000000 304.938812,401.000000 301.454102,401.000000 
z"/>
<path fill="#6F5247" opacity="1.000000" stroke="none" 
	d="
M101.009888,391.415527 
	C101.339577,390.967133 101.665886,390.983124 101.992317,390.985779 
	C111.003304,391.058990 111.003304,391.058777 111.000832,400.542908 
	C107.969406,401.000000 104.938812,401.000000 101.454117,401.000000 
	C101.002190,397.957916 101.004379,394.915802 101.009888,391.415527 
z"/>
<path fill="#43332A" opacity="1.000000" stroke="none" 
	d="
M180.977493,71.122650 
	C187.012573,71.089737 193.047653,71.056824 199.544250,71.513054 
	C200.001038,80.994797 200.001038,80.996124 209.077896,80.998009 
	C213.055984,80.998840 217.034088,80.993019 221.466675,80.993286 
	C224.965714,80.975731 228.010269,80.955101 231.504135,80.952103 
	C234.985291,80.975563 238.017136,80.981400 241.048981,80.987244 
	C241.048981,80.987244 241.012894,80.911766 241.023041,81.360641 
	C241.024643,92.503700 239.961899,90.838791 250.032333,90.996178 
	C250.358887,91.001282 250.685638,90.994072 251.467834,90.996086 
	C254.980072,90.992928 258.036774,90.986298 261.539978,90.981987 
	C264.991608,90.988174 267.996704,90.992035 271.001801,90.995895 
	C271.001801,90.995895 270.943878,90.996956 270.961884,91.474075 
	C271.016144,94.960678 271.052399,97.970154 271.057098,101.437775 
	C270.951538,109.705376 270.927368,109.593063 263.625763,111.164368 
	C262.569550,111.391670 261.046295,113.381775 261.151825,114.411301 
	C261.679474,119.558006 259.945923,121.837181 254.558594,121.046860 
	C250.602692,120.466522 250.963104,123.427963 251.003708,125.949501 
	C251.042938,128.386398 250.397400,131.113586 254.468231,131.034439 
	C262.123169,130.885635 269.784393,130.907257 277.440155,131.032669 
	C280.438843,131.081772 281.076508,129.627579 281.027344,127.030975 
	C280.926483,121.705803 281.006104,116.377213 281.463623,111.032417 
	C284.924957,111.030418 287.934082,111.046036 290.943207,111.061653 
	C290.943207,111.061653 290.992462,111.056572 290.996429,111.482925 
	C291.007111,114.911789 291.013824,117.914291 291.014771,121.380325 
	C291.146454,132.141815 289.548218,130.921143 300.110443,130.980209 
	C300.437744,130.982040 300.765198,130.963440 301.092560,130.954346 
	C301.092560,130.954346 301.025269,130.985138 301.019897,131.425110 
	C301.009796,135.021881 300.952454,138.179626 301.009796,141.335297 
	C301.208679,152.284134 299.208191,150.931808 310.848938,150.967285 
	C310.884674,154.343781 310.920380,157.720291 310.462036,161.550323 
	C308.314392,162.009293 306.576752,161.704819 305.035248,162.123169 
	C303.905243,162.429825 302.350983,163.557999 302.167938,164.540329 
	C301.507874,168.082245 301.087891,171.714539 301.047760,175.317947 
	C300.915192,187.222610 300.988098,199.129578 300.527100,211.021973 
	C289.597900,211.092316 291.145416,209.793365 290.997742,219.946030 
	C290.992889,220.278748 290.998718,220.611633 290.999268,220.944443 
	C291.016724,231.084885 291.016754,231.084885 300.982208,231.411316 
	C300.992889,234.913574 300.997681,237.958786 301.001099,241.457916 
	C301.010040,244.948425 301.020386,247.985001 301.021240,251.488800 
	C301.021484,261.633453 301.031219,271.310883 301.026001,281.444000 
	C301.008392,284.944153 301.005737,287.988586 301.001831,291.485718 
	C301.007080,294.965912 301.013672,297.993439 300.549774,301.014130 
	C293.747742,301.011566 287.416199,301.015900 281.033173,301.031647 
	C280.981720,301.043060 280.877747,301.025635 280.917664,300.567627 
	C281.012939,289.329041 281.877869,291.201935 271.982178,290.998810 
	C271.657288,290.992126 271.332214,290.994110 271.003601,290.995422 
	C271.000000,290.998779 271.002533,290.997925 271.001373,290.529480 
	C270.997498,277.022003 270.994781,263.983002 270.995117,250.491745 
	C270.960785,246.990875 270.923340,243.942291 270.926880,240.449188 
	C270.923828,237.004410 270.879852,234.004166 270.897064,230.538895 
	C270.970337,223.730896 270.982452,217.387924 270.994812,210.573486 
	C270.994720,203.715866 270.994385,197.329712 270.994293,190.489777 
	C270.994537,187.148331 270.994537,184.260666 270.994537,181.021652 
	C267.164215,181.021652 264.070618,181.021652 260.986389,180.567459 
	C260.952026,177.097092 260.908264,174.080933 260.910797,170.607117 
	C260.926239,167.075760 260.895386,164.002045 260.914520,160.477509 
	C260.964508,157.126022 260.964508,154.225311 260.964508,151.229813 
	C257.316315,151.048996 254.406754,150.904800 251.252609,150.748474 
	C251.065277,147.382339 250.896194,144.344193 250.722565,141.224319 
	C247.313446,141.051529 244.402420,140.903992 240.890610,140.726013 
	C240.890610,137.304703 240.890610,134.206680 240.923828,130.644531 
	C240.876999,119.914467 242.603943,121.018753 231.872437,121.054489 
	C231.544250,121.055580 231.216217,121.108231 230.880127,121.062439 
	C230.872131,120.988037 231.017593,120.952835 231.011536,120.499825 
	C230.819595,109.858452 232.459427,111.102875 221.988037,111.008240 
	C221.655075,111.005234 221.321960,111.015045 220.535675,111.012817 
	C217.058746,111.001503 214.035080,110.996254 211.007812,110.523071 
	C211.000977,105.067444 210.805084,100.070038 211.055298,95.095078 
	C211.256271,91.098961 209.001648,90.932861 206.029984,90.957024 
	C203.128113,90.980621 200.757812,90.972206 200.944809,95.034088 
	C201.189178,100.342850 200.996643,105.671722 200.524475,110.993813 
	C196.910751,110.996872 193.763809,110.953239 190.618576,111.007362 
	C179.638931,111.196304 181.102982,109.290154 180.566605,120.894943 
	C177.185181,120.955040 174.259369,120.955040 171.236038,120.955040 
	C171.051804,124.692444 170.907486,127.620209 170.741867,130.980042 
	C167.239288,130.980042 164.109711,130.980042 160.987762,130.987869 
	C160.995407,130.995697 161.011230,131.010742 161.007965,130.553070 
	C160.993927,122.318077 160.963669,122.453606 153.616348,120.813011 
	C152.520706,120.568352 150.996902,118.244049 151.151611,117.078293 
	C151.880463,111.585922 149.248260,110.335510 144.538635,110.977066 
	C143.394348,111.132950 142.209579,110.991600 141.029083,110.535004 
	C141.042221,107.080139 141.069702,104.077202 141.097183,101.074257 
	C144.079651,101.047363 147.062119,101.020470 150.953629,100.993210 
	C162.301895,100.847687 160.866745,102.401077 160.989899,91.920166 
	C160.993744,91.593307 160.984299,91.266289 160.981049,90.939346 
	C160.981033,90.939346 160.924377,90.981941 161.371033,90.976456 
	C172.242676,90.923637 170.912140,92.285507 170.978317,81.890625 
	C170.980392,81.562943 170.957535,81.235107 170.946289,80.907341 
	C170.946304,80.907341 170.996033,80.957489 171.424301,80.971962 
	C182.296570,80.868591 180.904953,82.400650 180.986450,71.621391 
	C180.987701,71.455177 180.980652,71.288895 180.977493,71.122650 
z"/>
<path fill="#43332A" opacity="1.000000" stroke="none" 
	d="
M110.985443,270.919006 
	C110.984032,261.288177 110.982620,251.657333 110.985992,241.099808 
	C111.012878,237.093903 111.034981,234.014709 111.507889,230.956268 
	C122.212868,230.884369 120.907806,232.360184 120.974709,221.988312 
	C120.976860,221.655228 120.956230,221.322006 120.965668,220.533478 
	C120.869751,209.823990 122.449722,211.079407 112.061218,211.019669 
	C111.728706,211.017761 111.395996,211.050034 111.044296,210.608612 
	C111.005859,207.104752 110.986504,204.058670 110.976578,200.543213 
	C110.987480,187.031769 110.988945,173.989700 110.993744,160.498138 
	C110.996696,157.030991 110.996307,154.013336 110.995918,150.995667 
	C110.995918,150.995667 110.998932,151.013397 111.463043,151.007751 
	C113.074394,150.999451 114.244644,150.847534 115.364838,151.020264 
	C119.972534,151.730713 121.405190,149.742523 121.074707,145.270233 
	C120.725456,140.543930 121.013687,135.770508 121.016159,131.020966 
	C121.008888,131.024261 121.025620,131.031799 121.491821,131.020477 
	C134.975754,131.009674 147.993500,131.010208 161.011230,131.010742 
	C161.011230,131.010742 160.995407,130.995697 160.995697,131.447540 
	C160.995987,134.818619 160.995987,137.737839 160.995987,140.761322 
	C157.325241,140.947922 154.405746,141.096329 151.136230,141.262527 
	C151.136230,148.054520 151.136230,154.491074 151.089508,161.386063 
	C151.026428,164.905807 151.010040,167.967117 150.536530,171.015274 
	C147.184982,171.002106 144.290558,171.002106 141.200073,171.002106 
	C141.200073,178.099548 141.200073,184.480072 140.731995,190.897614 
	C131.002808,191.126633 131.002792,191.126633 130.999496,200.223846 
	C130.995667,210.728973 130.995682,210.728973 141.124390,211.583954 
	C141.097031,218.362686 141.135483,224.685379 141.116119,231.455231 
	C141.076569,234.897522 141.094818,237.892685 141.074646,241.349197 
	C141.025223,244.866028 141.014221,247.921494 141.002869,251.447052 
	C141.012054,261.613770 141.021561,271.310364 141.023102,281.474854 
	C141.001740,288.287262 140.988358,294.631805 140.522949,300.983337 
	C137.035461,300.983551 134.000000,300.976776 130.971542,300.514893 
	C130.982056,298.893219 130.845474,297.705902 131.013992,296.563599 
	C131.654694,292.220703 130.031265,290.549316 125.518288,290.918488 
	C120.715950,291.311340 115.859200,291.038971 111.019180,290.598511 
	C111.003075,287.083557 110.994003,284.027100 110.991089,280.517944 
	C110.993324,277.016479 110.989380,273.967743 110.985443,270.919006 
z"/>
<path fill="#3D2E26" opacity="1.000000" stroke="none" 
	d="
M300.982178,211.035660 
	C300.988098,199.129578 300.915192,187.222610 301.047760,175.317947 
	C301.087891,171.714539 301.507874,168.082245 302.167938,164.540329 
	C302.350983,163.557999 303.905243,162.429825 305.035248,162.123169 
	C306.576752,161.704819 308.314392,162.009293 310.408051,162.007080 
	C310.889557,188.036209 310.930939,214.062103 310.474731,240.546204 
	C306.985535,241.004272 303.993988,241.004120 301.002441,241.003983 
	C300.997681,237.958786 300.992889,234.913574 300.992615,230.947937 
	C300.992126,223.696899 300.987152,217.366272 300.982178,211.035660 
z"/>
<path fill="#2D231F" opacity="1.000000" stroke="none" 
	d="
M110.990410,160.947632 
	C110.988945,173.989700 110.987480,187.031769 110.529694,200.539246 
	C107.105667,201.007355 104.137978,201.010086 101.170288,201.012817 
	C101.121498,188.021561 101.072716,175.030319 101.497574,161.538452 
	C104.977608,161.007767 107.984009,160.977707 110.990410,160.947632 
z"/>
<path fill="#1E1714" opacity="1.000000" stroke="none" 
	d="
M101.031044,341.046936 
	C101.012573,344.068939 100.994102,347.090912 100.456566,350.559570 
	C96.922806,351.014648 93.908104,351.023071 90.446899,351.024658 
	C87.014793,350.975830 84.029182,350.933838 81.043579,350.891846 
	C81.035286,341.276337 81.026985,331.660797 81.483131,321.540527 
	C84.961899,321.006287 87.976227,320.976776 90.992203,321.420044 
	C90.996254,325.011200 90.938835,328.130981 91.011864,331.247681 
	C91.266701,342.123718 88.917152,341.015259 101.032700,340.967255 
	C101.059647,340.986816 101.031044,341.046936 101.031044,341.046936 
z"/>
<path fill="#7B7F68" opacity="1.000000" stroke="none" 
	d="
M321.046051,311.004822 
	C322.710358,311.006927 324.374756,311.001709 326.039001,311.012634 
	C329.299072,311.033997 330.976196,312.693726 330.982513,315.940887 
	C331.002930,326.426147 331.104889,336.914368 330.840149,347.392944 
	C330.809143,348.619385 328.887299,350.324341 327.483246,350.850983 
	C325.879608,351.452484 323.874390,350.983459 321.517578,351.004333 
	C320.991486,351.029053 320.821320,351.073486 320.883423,350.618195 
	C320.908813,347.118927 320.872040,344.074982 320.890289,340.562744 
	C320.933136,333.767212 320.920990,327.439972 320.935974,320.649719 
	C320.958191,317.124390 320.953278,314.062073 320.972778,311.001099 
	C320.997192,311.002502 321.046051,311.004822 321.046051,311.004822 
z"/>
<path fill="#1E1714" opacity="1.000000" stroke="none" 
	d="
M301.040955,280.988312 
	C301.031219,271.310883 301.021484,261.633453 301.468628,251.480560 
	C304.898621,251.011734 307.871704,251.018341 310.844818,251.024933 
	C310.882721,260.703278 310.920654,270.381622 310.457153,280.528076 
	C306.984131,280.993591 304.012543,280.990936 301.040955,280.988312 
z"/>
<path fill="#3A2C25" opacity="1.000000" stroke="none" 
	d="
M221.012177,80.990219 
	C217.034088,80.993019 213.055984,80.998840 209.077896,80.998009 
	C200.001038,80.996124 200.001038,80.994797 200.010330,71.570618 
	C206.706924,71.106270 213.398941,71.073509 220.549591,71.539047 
	C221.009552,75.021645 221.010864,78.005928 221.012177,80.990219 
z"/>
<path fill="#2D231F" opacity="1.000000" stroke="none" 
	d="
M111.057083,230.935501 
	C111.034981,234.014709 111.012878,237.093903 110.983337,240.637543 
	C107.874657,241.101990 104.773430,241.101990 101.046303,241.101990 
	C101.046303,234.339951 101.046303,228.129639 101.542542,221.457153 
	C104.982521,220.980820 107.926262,220.966690 110.915848,221.408691 
	C110.993477,224.888367 111.025276,227.911942 111.057083,230.935501 
z"/>
<path fill="#3D2E26" opacity="1.000000" stroke="none" 
	d="
M110.984924,280.970673 
	C110.994003,284.027100 111.003075,287.083557 111.005524,291.047241 
	C111.006569,294.977264 111.014236,298.000000 110.564560,301.009369 
	C107.051109,300.956635 103.995003,300.917267 100.955887,300.430267 
	C100.977074,296.962555 100.981262,293.942474 100.985458,290.922424 
	C101.004471,287.900848 101.023483,284.879303 101.537003,281.421448 
	C105.015984,280.980316 108.000458,280.975494 110.984924,280.970673 
z"/>
<path fill="#7C7D67" opacity="1.000000" stroke="none" 
	d="
M90.990540,320.947235 
	C87.976227,320.976776 84.961899,321.006287 81.499336,321.079926 
	C81.034271,316.516998 81.323067,311.882874 80.917580,307.310303 
	C80.482925,302.408875 81.982277,300.112030 87.134117,300.977570 
	C88.094070,301.138824 89.104744,300.998260 90.553169,300.951355 
	C91.014336,300.905731 91.101158,300.903961 91.071182,301.366577 
	C91.055359,304.915619 91.069519,308.002106 91.055611,311.535309 
	C91.015213,314.970459 91.002876,317.958832 90.990540,320.947235 
z"/>
<path fill="#1E1714" opacity="1.000000" stroke="none" 
	d="
M311.381836,370.997070 
	C310.952942,364.635376 310.987152,358.285370 311.535217,351.470703 
	C314.973145,351.028564 317.897217,351.051025 320.821320,351.073486 
	C320.821320,351.073486 320.991486,351.029053 321.070282,350.989929 
	C321.098877,354.270691 321.030243,357.590393 321.003815,360.910461 
	C320.978943,364.037720 320.998505,367.165344 320.998505,371.008728 
	C317.694733,371.008728 314.769836,371.008728 311.381836,370.997070 
z"/>
<path fill="#797460" opacity="1.000000" stroke="none" 
	d="
M101.026398,380.939148 
	C101.024803,383.981323 101.023216,387.023499 101.033585,390.518799 
	C89.204559,390.918793 91.193420,392.374298 91.008224,381.219879 
	C90.956329,378.094238 91.017349,374.966705 91.490982,371.408325 
	C94.997589,370.979706 98.039803,370.982819 101.082008,370.985931 
	C101.082008,370.985931 101.010017,370.989532 101.009262,371.411255 
	C101.014465,374.868378 101.020432,377.903778 101.026398,380.939148 
z"/>
<path fill="#271D18" opacity="1.000000" stroke="none" 
	d="
M110.870010,220.952560 
	C107.926262,220.966690 104.982521,220.980820 101.600723,220.991135 
	C101.126282,214.638748 101.089882,208.290161 101.111877,201.477203 
	C104.137978,201.010086 107.105667,201.007355 110.520256,201.008606 
	C110.986504,204.058670 111.005859,207.104752 111.019867,211.056183 
	C111.048088,214.986389 111.081657,218.011276 111.055939,221.009338 
	C110.996651,220.982529 110.870010,220.952560 110.870010,220.952560 
z"/>
<path fill="#2F2521" opacity="1.000000" stroke="none" 
	d="
M310.904480,150.504059 
	C299.208191,150.931808 301.208679,152.284134 301.009796,141.335297 
	C300.952454,138.179626 301.009796,135.021881 301.026978,131.388794 
	C304.133362,130.912521 307.227325,130.912521 310.960052,130.912521 
	C310.960052,137.651550 310.960052,143.846191 310.904480,150.504059 
z"/>
<path fill="#745C4D" opacity="1.000000" stroke="none" 
	d="
M121.023438,131.017670 
	C121.013687,135.770508 120.725456,140.543930 121.074707,145.270233 
	C121.405190,149.742523 119.972534,151.730713 115.364838,151.020264 
	C114.244644,150.847534 113.074394,150.999451 111.471710,151.010681 
	C111.017326,144.669586 111.018394,138.319916 111.478287,131.492416 
	C114.965889,131.015610 117.994667,131.016632 121.023438,131.017670 
z"/>
<path fill="#736655" opacity="1.000000" stroke="none" 
	d="
M271.088684,100.979630 
	C271.052399,97.970154 271.016144,94.960678 270.960327,91.502991 
	C271.266113,91.042870 271.591522,91.020088 271.916840,91.020592 
	C282.719177,91.037292 280.767426,90.056328 281.002380,100.534714 
	C280.995178,101.002243 280.963684,101.026749 280.514587,101.018387 
	C277.073212,100.999893 274.080933,100.989761 271.088684,100.979630 
z"/>
<path fill="#736655" opacity="1.000000" stroke="none" 
	d="
M140.632629,101.050034 
	C141.069702,104.077202 141.042221,107.080139 140.570770,110.538986 
	C137.090942,111.003006 134.055099,111.011124 131.005371,111.005280 
	C130.991486,110.991302 130.963409,110.962593 130.963409,110.962593 
	C130.969650,110.636826 130.974319,110.311020 130.982330,109.985298 
	C131.226685,100.067619 129.263992,101.015060 140.632629,101.050034 
z"/>
<path fill="#776857" opacity="1.000000" stroke="none" 
	d="
M290.960846,110.599854 
	C287.934082,111.046036 284.924957,111.030418 281.459229,110.573570 
	C280.989655,107.097145 280.976654,104.061943 280.963684,101.026749 
	C280.963684,101.026749 280.995178,101.002243 281.011719,100.989899 
	C281.353455,100.983055 281.678680,100.987595 282.003845,100.994186 
	C292.033142,101.197365 290.949493,99.404495 290.960846,110.599854 
z"/>
<path fill="#736655" opacity="1.000000" stroke="none" 
	d="
M120.939240,120.984612 
	C120.948418,120.660324 120.959167,120.336067 120.966545,120.011734 
	C121.198532,109.813385 119.456390,111.124229 130.510834,110.973236 
	C130.963409,110.962593 130.991486,110.991302 130.997635,111.459641 
	C130.838715,122.253883 132.346603,120.865990 122.031418,120.998611 
	C121.698814,121.002884 121.366142,121.002373 121.009827,120.999901 
	C120.986153,120.995712 120.939247,120.984612 120.939240,120.984612 
z"/>
<path fill="#776857" opacity="1.000000" stroke="none" 
	d="
M311.166168,300.933777 
	C311.497009,300.945343 311.827728,300.963348 312.158661,300.967590 
	C320.972290,301.079620 320.972290,301.079376 321.030487,310.547791 
	C321.046051,311.004822 320.997192,311.002502 320.527466,311.001251 
	C317.072266,310.992950 314.086823,310.985901 311.066223,310.528442 
	C310.979095,307.072113 310.927094,304.066101 310.948212,301.029358 
	C311.021362,300.998627 311.166168,300.933746 311.166168,300.933777 
z"/>
<path fill="#7C7D67" opacity="1.000000" stroke="none" 
	d="
M291.020538,120.916794 
	C291.013824,117.914291 291.007111,114.911789 290.994202,111.458282 
	C291.314606,111.005737 291.641296,110.998665 291.967804,111.003471 
	C302.117737,111.152977 300.944061,109.558281 300.514038,120.613831 
	C297.041351,120.998573 294.030945,120.957687 291.020538,120.916794 
z"/>
<path fill="#08090D" opacity="1.000000" stroke="none" 
	d="
M101.048462,370.533569 
	C98.039803,370.982819 94.997589,370.979706 91.504608,370.933105 
	C91.018127,367.876648 90.982414,364.863708 90.969391,361.434937 
	C90.992081,361.019104 91.161797,361.062897 91.600067,361.044647 
	C94.971336,361.019806 97.904350,361.013214 100.837357,361.006622 
	C100.896545,364.031464 100.955734,367.056335 101.048462,370.533569 
z"/>
<path fill="#342720" opacity="1.000000" stroke="none" 
	d="
M180.523895,71.074348 
	C180.980652,71.288895 180.987701,71.455177 180.986450,71.621391 
	C180.904953,82.400650 182.296570,80.868591 171.389236,80.976135 
	C170.925903,77.884254 170.925903,74.802666 170.925903,71.026054 
	C174.307663,71.026054 177.188965,71.026054 180.523895,71.074348 
z"/>
<path fill="#2C201B" opacity="1.000000" stroke="none" 
	d="
M221.466675,80.993286 
	C221.010864,78.005928 221.009552,75.021645 221.016632,71.595459 
	C224.061325,71.120079 227.097610,71.086601 230.577667,71.555222 
	C231.032562,75.016380 231.043701,77.975426 231.054840,80.934479 
	C228.010269,80.955101 224.965714,80.975731 221.466675,80.993286 
z"/>
<path fill="#030102" opacity="1.000000" stroke="none" 
	d="
M310.980865,380.490143 
	C307.954132,380.959503 304.946411,380.976196 301.487152,380.975250 
	C301.035583,377.875671 301.035583,374.793732 301.035583,370.995148 
	C304.076019,370.995148 307.078827,370.995148 310.539917,370.958313 
	C310.998749,373.960144 310.999329,376.998779 310.980865,380.490143 
z"/>
<path fill="#120E0E" opacity="1.000000" stroke="none" 
	d="
M231.504150,80.952103 
	C231.043701,77.975426 231.032562,75.016380 231.030060,71.616898 
	C234.129044,71.176476 237.219376,71.176476 241.004120,71.176476 
	C241.004120,74.279541 241.004120,77.177368 241.026550,80.531219 
	C238.017136,80.981400 234.985291,80.975563 231.504150,80.952103 
z"/>
<path fill="#3D2E26" opacity="1.000000" stroke="none" 
	d="
M170.494370,80.938873 
	C170.957535,81.235107 170.980392,81.562943 170.978317,81.890625 
	C170.912140,92.285507 172.242676,90.923637 161.350510,90.947563 
	C160.883347,87.862328 160.883347,84.800507 160.883347,80.970406 
	C164.307251,80.970406 167.174850,80.970406 170.494370,80.938873 
z"/>
<path fill="#1E1714" opacity="1.000000" stroke="none" 
	d="
M160.525467,90.962997 
	C160.984299,91.266289 160.993744,91.593307 160.989899,91.920166 
	C160.866745,102.401077 162.301895,100.847687 151.401230,100.990593 
	C150.939789,97.894066 150.939789,94.799774 150.939789,90.986656 
	C154.279434,90.986656 157.174667,90.986656 160.525467,90.962997 
z"/>
<path fill="#3D2E26" opacity="1.000000" stroke="none" 
	d="
M251.012299,90.992607 
	C250.685638,90.994072 250.358887,91.001282 250.032333,90.996178 
	C239.961899,90.838791 241.024643,92.503700 241.060181,81.341408 
	C244.099884,80.929337 247.112595,80.985382 250.567169,81.536568 
	C251.010132,85.018669 251.011215,88.005638 251.012299,90.992607 
z"/>
<path fill="#7B7F68" opacity="1.000000" stroke="none" 
	d="
M81.031105,351.356201 
	C84.029182,350.933838 87.014793,350.975830 90.486954,351.476654 
	C91.036278,354.977966 91.099037,358.020416 91.161797,361.062897 
	C91.161797,361.062897 90.992081,361.019104 90.912086,360.983337 
	C90.666061,360.953247 90.500031,360.964050 90.334000,360.963989 
	C79.526115,360.959320 81.127594,362.151062 81.031105,351.356201 
z"/>
<path fill="#2C201B" opacity="1.000000" stroke="none" 
	d="
M251.467834,90.996086 
	C251.011215,88.005638 251.010132,85.018669 251.018921,81.589386 
	C254.019577,81.100838 257.010345,81.054596 260.491638,81.474716 
	C261.019257,84.953941 261.056335,87.966797 261.093445,90.979660 
	C258.036774,90.986298 254.980072,90.992928 251.467834,90.996086 
z"/>
<path fill="#7C7D67" opacity="1.000000" stroke="none" 
	d="
M261.539978,90.981979 
	C261.056335,87.966797 261.019257,84.953941 260.938324,81.492493 
	C261.220856,81.034851 261.547272,81.016884 261.873596,81.018036 
	C272.519684,81.055687 270.835144,79.939987 271.002136,90.539612 
	C267.996704,90.992035 264.991608,90.988174 261.539978,90.981979 
z"/>
<path fill="#2D231F" opacity="1.000000" stroke="none" 
	d="
M310.902649,250.572479 
	C307.871704,251.018341 304.898621,251.011734 301.478149,251.013351 
	C301.020386,247.985001 301.010040,244.948425 301.001068,241.457916 
	C303.993988,241.004120 306.985535,241.004272 310.420227,241.013458 
	C310.895721,244.055008 310.928101,247.087509 310.902649,250.572479 
z"/>
<path fill="#342720" opacity="1.000000" stroke="none" 
	d="
M291.014771,121.380325 
	C294.030945,120.957687 297.041351,120.998573 300.500000,121.077499 
	C300.973999,124.097176 300.999756,127.078819 301.059052,130.507416 
	C300.765198,130.963440 300.437744,130.982040 300.110443,130.980209 
	C289.548218,130.921143 291.146454,132.141815 291.014771,121.380325 
z"/>
<path fill="#73584A" opacity="1.000000" stroke="none" 
	d="
M301.020233,301.020996 
	C301.013672,297.993439 301.007080,294.965912 301.453949,291.475494 
	C304.908691,290.976135 307.910034,290.939606 310.911377,290.903107 
	C310.961090,293.947723 311.010803,296.992310 311.113342,300.485352 
	C311.166168,300.933746 311.021362,300.998627 310.506958,301.008545 
	C306.986877,301.004608 303.981262,300.990784 300.987061,300.987366 
	C300.998505,300.997772 301.020233,301.020996 301.020233,301.020996 
z"/>
<path fill="#1E1714" opacity="1.000000" stroke="none" 
	d="
M100.529060,290.945282 
	C100.981262,293.942474 100.977074,296.962555 100.511009,300.478973 
	C97.066475,300.951569 94.083817,300.927765 91.101158,300.903961 
	C91.101158,300.903961 91.014336,300.905731 91.010422,300.948944 
	C91.006516,297.890381 91.006516,294.788635 91.006516,290.968140 
	C94.268700,290.968140 97.170685,290.968140 100.529060,290.945282 
z"/>
<path fill="#271D17" opacity="1.000000" stroke="none" 
	d="
M310.946411,290.456909 
	C307.910034,290.939606 304.908691,290.976135 301.455261,291.022827 
	C301.005737,287.988586 301.008392,284.944153 301.025970,281.444000 
	C304.012543,280.990936 306.984131,280.993591 310.397552,280.992615 
	C310.886719,283.996246 310.934082,287.003479 310.946411,290.456909 
z"/>
<path fill="#736655" opacity="1.000000" stroke="none" 
	d="
M110.993744,160.498138 
	C107.984009,160.977707 104.977608,161.007767 101.525253,161.077972 
	C101.063049,160.791473 101.033020,160.464859 101.032570,160.138214 
	C101.017624,149.304443 100.055267,151.197113 110.539558,150.995865 
	C110.996307,154.013336 110.996696,157.030991 110.993744,160.498138 
z"/>
<path fill="#797460" opacity="1.000000" stroke="none" 
	d="
M121.016159,131.020966 
	C117.994667,131.016632 114.965889,131.015610 111.486771,131.026489 
	C111.028145,130.713974 111.010963,130.389465 111.012886,130.065079 
	C111.075562,119.509262 109.911896,121.166451 120.489441,120.988678 
	C120.939247,120.984612 120.986153,120.995712 120.997910,121.453903 
	C121.014984,124.952003 121.020302,127.991898 121.025620,131.031799 
	C121.025620,131.031799 121.008888,131.024261 121.016159,131.020966 
z"/>
<path fill="#1E1714" opacity="1.000000" stroke="none" 
	d="
M110.991089,280.517944 
	C108.000458,280.975494 105.015984,280.980316 101.588959,280.969299 
	C101.146400,277.862946 101.146400,274.772400 101.146400,270.966034 
	C104.280640,270.966034 107.176857,270.966034 110.529266,270.942505 
	C110.989380,273.967743 110.993324,277.016479 110.991089,280.517944 
z"/>
<path fill="#271D17" opacity="1.000000" stroke="none" 
	d="
M260.881683,311.037292 
	C257.880432,311.022034 254.879166,311.006805 251.438873,310.470215 
	C251.002838,308.959320 250.880661,307.950470 251.029984,306.983521 
	C251.766907,302.211609 249.839142,300.493408 245.028168,300.916718 
	C240.444138,301.320068 235.800293,301.043976 231.122955,300.611359 
	C230.993835,297.109253 230.924530,294.062378 230.910324,290.563110 
	C231.013916,287.072510 231.062393,284.034241 231.560974,280.998749 
	C242.373047,280.825409 240.863861,282.520660 240.999573,271.959534 
	C241.003754,271.634735 240.990997,271.309753 240.991943,270.989807 
	C240.997742,270.994781 240.992249,270.993561 241.449814,270.998749 
	C252.449509,270.847778 250.837830,272.448761 251.001236,261.975342 
	C251.006332,261.649017 250.998291,261.322479 250.992859,260.995422 
	C250.989349,260.994781 250.982864,260.982971 251.437805,260.988586 
	C254.918854,260.966675 257.944946,260.939178 260.979065,261.385773 
	C260.991150,268.286194 260.996521,274.712463 260.998993,281.138763 
	C261.002747,291.004730 261.001892,291.004730 271.002533,290.997925 
	C271.002533,290.997925 271.000000,290.998779 271.001099,291.452911 
	C271.107147,302.405792 269.842804,300.838104 279.883545,301.007080 
	C280.214935,301.012634 280.546356,301.019440 280.877747,301.025635 
	C280.877747,301.025635 280.981720,301.043060 281.002197,301.481934 
	C281.050842,304.926880 281.079010,307.932983 280.632324,310.956177 
	C273.732178,310.994598 267.306946,311.015961 260.881683,311.037292 
z"/>
<path fill="#0D0808" opacity="1.000000" stroke="none" 
	d="
M221.007416,320.829529 
	C207.821930,320.829529 194.636444,320.829529 181.002869,320.829529 
	C181.002869,317.718323 181.002869,314.790894 180.990997,311.420624 
	C180.979111,310.977783 180.968903,311.041992 181.439224,311.023041 
	C194.943741,311.060608 207.977921,311.117126 221.009399,311.612061 
	C221.006927,314.976807 221.007172,317.903168 221.007416,320.829529 
z"/>
<path fill="#120E0E" opacity="1.000000" stroke="none" 
	d="
M260.933014,311.492310 
	C267.306946,311.015961 273.732178,310.994598 281.074554,310.981354 
	C284.966522,311.037445 287.941406,311.085419 290.940918,311.574646 
	C290.990479,315.002716 291.015381,317.989532 291.026733,321.004211 
	C291.013245,321.032135 290.951843,321.040894 290.951843,321.040894 
	C281.153320,321.040894 271.354767,321.040894 260.984344,321.040894 
	C260.984344,317.815063 260.984344,314.881195 260.933014,311.492310 
z"/>
<path fill="#120C0A" opacity="1.000000" stroke="none" 
	d="
M181.004028,310.956879 
	C174.664536,310.952850 168.300125,310.969727 161.469864,310.468048 
	C161.005890,306.968872 161.007736,303.988251 161.476929,301.004181 
	C168.241379,301.010345 174.538513,301.019989 180.898499,301.479065 
	C180.963882,304.966339 180.966385,308.004181 180.968903,311.041992 
	C180.968903,311.041992 180.979111,310.977783 181.004028,310.956879 
z"/>
<path fill="#120C0A" opacity="1.000000" stroke="none" 
	d="
M231.182755,301.066559 
	C235.800293,301.043976 240.444138,301.320068 245.028168,300.916718 
	C249.839142,300.493408 251.766907,302.211609 251.029984,306.983521 
	C250.880661,307.950470 251.002838,308.959320 250.992676,310.395691 
	C244.634949,310.892883 238.284393,310.943207 231.491394,310.991211 
	C231.048981,310.988892 231.021637,311.052002 231.014282,310.593384 
	C230.960968,307.074799 230.915039,304.014801 230.938446,301.008209 
	C231.007797,301.061584 231.182755,301.066559 231.182755,301.066559 
z"/>
<path fill="#120C0A" opacity="1.000000" stroke="none" 
	d="
M151.082092,311.061829 
	C151.082092,314.198547 151.082092,317.335236 151.082092,320.978058 
	C144.479462,320.978058 138.207916,320.978058 131.472382,320.462219 
	C131.007843,316.994598 131.007309,314.042755 131.459290,311.061157 
	C134.933914,311.008881 137.956009,310.986359 141.431610,310.972290 
	C144.898010,310.975311 147.910919,310.969879 150.950500,311.009705 
	C150.977203,311.054993 151.082092,311.061829 151.082092,311.061829 
z"/>
<path fill="#08090D" opacity="1.000000" stroke="none" 
	d="
M131.218750,381.190155 
	C131.218750,374.613953 131.218750,368.037781 131.218750,361.229523 
	C134.403152,361.229523 137.456299,361.229523 140.759094,361.229523 
	C140.759094,367.692841 140.759094,374.065948 140.759094,381.001678 
	C137.820694,381.001678 134.904663,381.001678 131.566803,381.062927 
	C131.144974,381.124176 131.218750,381.190155 131.218750,381.190155 
z"/>
<path fill="#030102" opacity="1.000000" stroke="none" 
	d="
M221.461182,320.903778 
	C221.007172,317.903168 221.006927,314.976807 221.459366,311.547668 
	C224.948578,311.047272 227.985107,311.049622 231.021637,311.052002 
	C231.021637,311.052002 231.048981,310.988892 231.023438,310.966675 
	C230.997894,314.166199 230.997894,317.387939 230.997894,320.978027 
	C227.707275,320.978027 224.811127,320.978027 221.461182,320.903778 
z"/>
<path fill="#1E1714" opacity="1.000000" stroke="none" 
	d="
M131.006775,311.090942 
	C131.007309,314.042755 131.007843,316.994598 131.009995,320.386841 
	C127.980644,320.877869 124.949699,320.928467 121.464066,320.464661 
	C121.017899,316.974213 121.026405,313.998138 121.485138,311.016174 
	C124.955902,310.986694 127.976440,310.963104 130.998550,310.977417 
	C131.000122,311.015350 131.006775,311.090942 131.006775,311.090942 
z"/>
<path fill="#3A2C25" opacity="1.000000" stroke="none" 
	d="
M121.034912,311.022095 
	C121.026405,313.998138 121.017899,316.974213 121.015633,320.393158 
	C118.008087,320.895630 114.994301,320.955231 111.485001,321.025330 
	C110.989494,321.035828 110.930496,320.960999 110.949570,320.508789 
	C110.969322,317.025360 110.970001,313.994171 110.973557,310.976990 
	C110.976433,310.991028 110.963455,310.973877 111.421402,310.981934 
	C114.931206,311.000671 117.983055,311.011383 121.034912,311.022095 
z"/>
<path fill="#1E1714" opacity="1.000000" stroke="none" 
	d="
M161.009583,301.007629 
	C161.007736,303.988251 161.005890,306.968872 161.007507,310.392883 
	C158.000534,310.893799 154.990082,310.951294 151.530853,311.035278 
	C151.082092,311.061829 150.977203,311.054993 150.971634,310.555908 
	C151.269547,300.049835 149.278488,301.071106 160.009903,301.002777 
	C160.343124,301.000641 160.676361,301.005859 161.009583,301.007629 
z"/>
<path fill="#0D0808" opacity="1.000000" stroke="none" 
	d="
M290.459595,381.063324 
	C290.908417,384.202179 290.908417,387.291107 290.908417,390.979767 
	C287.799072,390.979767 284.905823,390.979767 281.563660,390.943787 
	C281.079742,387.885895 281.044769,384.863922 281.005157,381.420044 
	C281.000549,380.998108 280.935089,381.067200 280.935089,381.067200 
	C283.960297,381.049255 286.985535,381.031342 290.459595,381.063324 
z"/>
<path fill="#0D0808" opacity="1.000000" stroke="none" 
	d="
M130.940338,390.467285 
	C127.796158,390.915497 124.704613,390.915497 121.010910,390.915497 
	C121.010910,387.804657 121.010910,384.907928 121.047752,381.562073 
	C124.147446,381.080170 127.210297,381.047394 130.745941,381.102417 
	C131.218750,381.190155 131.144974,381.124176 131.113129,381.094330 
	C131.051865,384.049347 131.022415,387.034180 130.940338,390.467285 
z"/>
<path fill="#08090D" opacity="1.000000" stroke="none" 
	d="
M281.035126,380.965393 
	C277.940308,380.932678 274.810913,380.932678 271.337677,380.932678 
	C271.337677,377.849854 271.337677,374.794098 271.337677,371.362854 
	C274.233276,371.362854 277.397583,371.362854 280.999512,371.362854 
	C280.999512,374.288666 280.999512,377.214813 280.967285,380.604065 
	C280.935089,381.067200 281.000549,380.998108 281.035126,380.965393 
z"/>
<path fill="#030102" opacity="1.000000" stroke="none" 
	d="
M101.476387,380.964600 
	C101.020432,377.903778 101.014465,374.868378 101.008698,371.375244 
	C104.214584,370.917450 107.420280,370.917450 110.996925,370.917450 
	C110.996925,374.279510 110.996925,377.163361 110.980347,380.502197 
	C107.951302,380.968170 104.938843,380.979126 101.476387,380.964600 
z"/>
<path fill="#120E0E" opacity="1.000000" stroke="none" 
	d="
M91.600067,361.044647 
	C91.099037,358.020416 91.036278,354.977966 90.933464,351.483459 
	C93.908104,351.023071 96.922806,351.014648 100.382874,351.007629 
	C100.879257,354.041748 100.930283,357.074463 100.909332,360.556915 
	C97.904350,361.013214 94.971336,361.019806 91.600067,361.044647 
z"/>
<path fill="#2C201B" opacity="1.000000" stroke="none" 
	d="
M320.883423,350.618195 
	C317.897217,351.051025 314.973145,351.028564 311.609711,351.008240 
	C311.112823,347.995819 311.055237,344.981232 310.962921,341.472168 
	C310.928192,340.977631 311.011322,340.934692 311.461304,340.953918 
	C314.885956,340.992462 317.860626,341.011749 320.835297,341.031006 
	C320.872040,344.074982 320.908813,347.118927 320.883423,350.618195 
z"/>
<path fill="#120E0E" opacity="1.000000" stroke="none" 
	d="
M310.943115,341.021942 
	C307.823883,341.066254 304.689728,341.066254 300.995331,341.066254 
	C300.995331,337.834961 300.995331,334.899750 300.980469,331.476990 
	C300.965637,330.989502 301.022827,330.960419 301.477966,330.970428 
	C312.307190,331.195007 310.839691,329.548370 310.999207,339.936890 
	C311.004303,340.269501 311.007324,340.602081 311.011322,340.934692 
	C311.011322,340.934692 310.928192,340.977631 310.943115,341.021942 
z"/>
<path fill="#030102" opacity="1.000000" stroke="none" 
	d="
M110.839874,331.033691 
	C110.839874,334.113739 110.839874,337.193726 110.839874,341.006836 
	C107.944092,341.006836 104.944832,341.006836 101.488312,341.026886 
	C101.031044,341.046936 101.059647,340.986816 101.028961,340.517578 
	C101.015968,337.056763 101.033661,334.065247 101.497231,331.050598 
	C104.908699,331.029541 107.874290,331.031616 110.839874,331.033691 
z"/>
<path fill="#0D0808" opacity="1.000000" stroke="none" 
	d="
M300.960449,331.021149 
	C297.819611,331.052795 294.683990,331.052795 290.996643,331.052795 
	C290.996643,327.829346 290.996643,324.891541 290.974243,321.497314 
	C290.951843,321.040894 291.013245,321.032135 291.477966,321.011810 
	C294.955536,321.003204 297.968414,321.014923 300.988647,321.020203 
	C300.996002,321.013824 300.973389,321.019867 300.981903,321.471558 
	C301.001221,324.935669 301.012024,327.948029 301.022827,330.960419 
	C301.022827,330.960419 300.965637,330.989502 300.960449,331.021149 
z"/>
<path fill="#2F2521" opacity="1.000000" stroke="none" 
	d="
M110.910461,330.583862 
	C107.874290,331.031616 104.908699,331.029541 101.480675,330.586853 
	C101.039642,319.334747 100.043541,321.221710 109.957184,320.984314 
	C110.281624,320.976562 110.606056,320.968781 110.930496,320.960999 
	C110.930496,320.960999 110.989494,321.035828 111.035553,321.048004 
	C111.048096,324.084808 111.014580,327.109406 110.910461,330.583862 
z"/>
<path fill="#BD8A74" opacity="1.000000" stroke="none" 
	d="
M151.136230,160.927643 
	C151.136230,154.491074 151.136230,148.054520 151.136230,141.262527 
	C154.405746,141.096329 157.325241,140.947922 160.995987,140.761322 
	C160.995987,137.737839 160.995987,134.818619 160.988052,131.439713 
	C164.109711,130.980042 167.239288,130.980042 170.741867,130.980042 
	C170.907486,127.620209 171.051804,124.692444 171.236038,120.955040 
	C174.259369,120.955040 177.185181,120.955040 181.029846,120.957581 
	C188.302933,120.917564 194.657181,120.875008 201.475693,120.892410 
	C208.288971,120.912460 214.637985,120.872559 221.438904,120.892799 
	C224.933090,120.952904 227.975342,120.952866 231.017593,120.952835 
	C231.017593,120.952835 230.872131,120.988037 230.917084,121.507233 
	C231.063980,130.844360 231.063995,130.843796 239.899063,131.037399 
	C240.229950,131.044662 240.560104,131.084167 240.890610,131.108643 
	C240.890610,134.206680 240.890610,137.304703 240.890610,140.726013 
	C244.402420,140.903992 247.313446,141.051529 250.722565,141.224319 
	C250.896194,144.344193 251.065277,147.382339 251.252609,150.748474 
	C254.406754,150.904800 257.316315,151.048996 260.964508,151.229813 
	C260.964508,154.225311 260.964508,157.126022 260.457214,160.502014 
	C256.973907,160.985825 253.997879,161.002167 251.021866,161.001389 
	C241.051697,160.998764 241.051697,160.996429 240.525177,170.920013 
	C230.833588,171.118423 230.833511,171.118423 231.089050,180.471985 
	C231.093475,180.634109 231.109924,180.795914 231.077881,181.417389 
	C231.052734,184.959137 231.070511,188.041367 231.053955,191.568008 
	C231.067200,194.994812 231.114761,197.977219 231.101013,201.411072 
	C231.074783,204.883698 231.109833,207.904892 231.097687,211.385956 
	C231.050476,214.744263 231.050476,217.642670 231.050476,220.944107 
	C238.163345,220.944107 244.559113,220.944107 250.966339,221.404114 
	C251.201111,232.149918 249.491974,230.887558 260.022308,231.003494 
	C260.347778,231.007080 260.673279,231.006546 260.999084,231.462341 
	C261.010498,234.971725 261.021606,238.026718 261.022217,241.530029 
	C261.000427,244.977432 260.989044,247.976471 260.982483,250.985367 
	C260.987274,250.995209 261.005493,251.007370 260.547913,251.004028 
	C251.014618,250.992050 251.014679,250.992050 250.990707,260.002472 
	C250.989838,260.329315 250.985550,260.656128 250.982864,260.982971 
	C250.982864,260.982971 250.989349,260.994781 250.535889,260.996582 
	C240.997116,261.001770 240.997147,261.001770 240.993622,270.012177 
	C240.993500,270.339294 240.992706,270.666443 240.992249,270.993561 
	C240.992249,270.993561 240.997742,270.994781 240.539551,270.992310 
	C237.064957,271.034973 234.048569,271.080109 230.573929,271.079346 
	C219.262909,271.039764 221.211105,269.837097 220.995377,280.018127 
	C220.988449,280.345062 220.998489,280.672302 220.997162,280.970398 
	C220.993729,280.941376 220.935516,280.935974 220.473846,280.957764 
	C210.349594,280.985718 200.687012,280.991882 191.017609,280.544586 
	C190.989258,277.070343 190.967697,274.049622 191.417908,271.019775 
	C194.887360,271.006958 197.884995,270.997986 200.882645,271.000427 
	C210.921051,271.008606 210.921051,271.010132 211.497253,261.045959 
	C222.015091,260.777649 220.924911,262.589813 221.003677,252.064758 
	C221.006149,251.733017 221.002213,251.401245 221.001602,251.069489 
	C220.983124,241.030075 220.983124,241.030075 211.053192,240.536926 
	C211.015152,237.065933 211.004456,234.046448 210.996185,230.567566 
	C210.999359,228.774872 210.868088,227.425720 211.025757,226.111252 
	C211.485626,222.277191 210.096161,220.913651 206.039246,220.850754 
	C201.533600,220.780914 200.559174,222.708511 200.972046,226.536530 
	C201.131989,228.019577 201.004120,229.533691 201.005341,231.485291 
	C200.972809,234.952744 200.942307,237.968552 200.464813,240.988983 
	C189.796951,241.154770 191.110931,239.615417 191.002151,250.007507 
	C190.998672,250.340012 191.005615,250.672623 191.002594,251.458557 
	C191.002747,254.936234 191.007996,257.960510 191.010666,261.441437 
	C190.995972,264.950165 190.983856,268.002289 190.519562,271.034607 
	C187.034042,271.052948 184.000717,271.091064 180.518250,271.081146 
	C177.048721,271.019196 174.028366,271.005310 171.005859,270.994598 
	C171.003723,270.997803 171.014648,270.985779 171.013153,270.529602 
	C171.003464,260.999268 171.003464,260.999268 161.980026,261.000153 
	C161.653168,261.000183 161.326309,261.000427 161.002106,260.999695 
	C161.004745,260.998840 161.010330,260.989746 161.007111,260.533386 
	C160.992905,250.967728 160.992905,250.967621 151.965607,251.003586 
	C151.638748,251.004898 151.311920,251.011978 150.989288,251.010635 
	C150.993484,251.004913 151.003387,250.995789 150.999481,250.539215 
	C150.985321,241.161163 150.985306,241.161743 142.109314,240.961288 
	C141.776855,240.953781 141.445129,240.913071 141.113068,240.887817 
	C141.094818,237.892685 141.076569,234.897522 141.571671,231.452972 
	C144.870346,231.002289 147.655685,231.000565 150.441010,230.999847 
	C160.689331,230.997147 160.689331,230.997253 161.597382,220.890350 
	C168.226456,220.958389 174.401642,220.958389 180.850647,220.958389 
	C180.850647,217.108749 180.850647,214.016602 180.907837,210.477386 
	C180.924149,207.012634 180.883255,203.994965 180.907272,200.531738 
	C180.950439,197.095657 180.928711,194.105133 180.933838,190.639648 
	C180.974060,187.209579 180.994308,184.254517 180.999496,181.299408 
	C181.017014,171.299240 181.014984,171.299240 171.058533,170.410507 
	C171.025314,168.804825 170.864120,167.624481 171.031189,166.492584 
	C171.675949,162.124084 169.943359,160.585648 165.522995,160.913727 
	C160.753342,161.267731 155.933929,160.951492 151.136230,160.927643 
z"/>
<path fill="#74584A" opacity="1.000000" stroke="none" 
	d="
M121.491821,131.020477 
	C121.020302,127.991898 121.014984,124.952003 121.021591,121.458099 
	C121.366142,121.002373 121.698814,121.002884 122.031418,120.998611 
	C132.346603,120.865990 130.838715,122.253883 131.011520,111.473618 
	C134.055099,111.011124 137.090942,111.003006 140.585114,110.990898 
	C142.209579,110.991600 143.394348,111.132950 144.538635,110.977066 
	C149.248260,110.335510 151.880463,111.585922 151.151611,117.078293 
	C150.996902,118.244049 152.520706,120.568352 153.616348,120.813011 
	C160.963669,122.453606 160.993927,122.318077 161.007965,130.553070 
	C147.993500,131.010208 134.975754,131.009674 121.491821,131.020477 
z"/>
<path fill="#73584A" opacity="1.000000" stroke="none" 
	d="
M280.514587,101.018387 
	C280.976654,104.061943 280.989655,107.097145 281.007019,110.591187 
	C281.006104,116.377213 280.926483,121.705803 281.027344,127.030975 
	C281.076508,129.627579 280.438843,131.081772 277.440155,131.032669 
	C269.784393,130.907257 262.123169,130.885635 254.468231,131.034439 
	C250.397400,131.113586 251.042938,128.386398 251.003708,125.949501 
	C250.963104,123.427963 250.602692,120.466522 254.558594,121.046860 
	C259.945923,121.837181 261.679474,119.558006 261.151825,114.411301 
	C261.046295,113.381775 262.569550,111.391670 263.625763,111.164368 
	C270.927368,109.593063 270.951538,109.705376 271.057068,101.437767 
	C274.080933,100.989761 277.073212,100.999893 280.514587,101.018387 
z"/>
<path fill="#2C201B" opacity="1.000000" stroke="none" 
	d="
M271.001373,290.529480 
	C261.001892,291.004730 261.002747,291.004730 260.998993,281.138763 
	C260.996521,274.712463 260.991150,268.286194 260.985596,260.940430 
	C260.991272,257.016449 260.998383,254.011902 261.005493,251.007370 
	C261.005493,251.007370 260.987274,250.995209 261.438110,250.990036 
	C264.923309,250.971252 267.957672,250.957626 270.992035,250.944000 
	C270.994781,263.983002 270.997498,277.022003 271.001373,290.529480 
z"/>
<path fill="#BD7976" opacity="1.000000" stroke="none" 
	d="
M260.998779,231.007935 
	C260.673279,231.006546 260.347778,231.007080 260.022308,231.003494 
	C249.491974,230.887558 251.201111,232.149918 250.965744,221.425522 
	C250.953659,220.986908 250.928848,220.957138 251.391632,220.970581 
	C260.751740,221.030502 260.750397,221.030457 261.056152,212.299606 
	C261.073395,211.807465 261.141205,211.317093 261.622986,210.894836 
	C265.038513,210.990829 268.016571,211.017883 270.994598,211.044937 
	C270.982452,217.387924 270.970337,223.730896 270.455200,230.538040 
	C266.967743,231.004105 263.983246,231.006027 260.998779,231.007935 
z"/>
<path fill="#030102" opacity="1.000000" stroke="none" 
	d="
M270.994812,210.573486 
	C268.016571,211.017883 265.038513,210.990829 261.563171,210.892151 
	C261.065887,210.820526 261.022003,210.931641 261.013245,210.478851 
	C261.004517,207.089767 261.004517,204.153458 261.004517,201.102020 
	C257.329498,201.102020 254.195557,201.102020 251.125366,200.979309 
	C251.189117,200.856613 251.044632,200.620804 251.026825,200.198044 
	C251.002869,196.850189 250.996735,193.925095 251.449188,190.999008 
	C254.982346,190.980743 258.056915,190.963486 261.576843,190.965485 
	C265.012817,190.971039 268.003418,190.957306 270.994049,190.943558 
	C270.994385,197.329712 270.994720,203.715866 270.994812,210.573486 
z"/>
<path fill="#634A43" opacity="1.000000" stroke="none" 
	d="
M300.527100,211.021973 
	C300.987152,217.366272 300.992126,223.696899 300.986725,230.490875 
	C291.016754,231.084885 291.016724,231.084885 290.999268,220.944443 
	C290.998718,220.611633 290.992889,220.278748 290.997742,219.946030 
	C291.145416,209.793365 289.597900,211.092316 300.527100,211.021973 
z"/>
<path fill="#74584A" opacity="1.000000" stroke="none" 
	d="
M290.916260,311.133362 
	C287.941406,311.085419 284.966522,311.037445 281.549438,310.964294 
	C281.079010,307.932983 281.050842,304.926880 281.053650,301.470520 
	C287.416199,301.015900 293.747742,301.011566 300.549774,301.014130 
	C301.020233,301.020996 300.998505,300.997772 300.994751,301.442078 
	C300.989410,304.905975 300.987762,307.925568 300.532104,310.963684 
	C297.024109,311.032654 293.970184,311.083008 290.916260,311.133362 
z"/>
<path fill="#342720" opacity="1.000000" stroke="none" 
	d="
M200.992065,110.991943 
	C200.996643,105.671722 201.189178,100.342850 200.944809,95.034088 
	C200.757812,90.972206 203.128113,90.980621 206.029984,90.957024 
	C209.001648,90.932861 211.256271,91.098961 211.055298,95.095078 
	C210.805084,100.070038 211.000977,105.067444 210.552551,110.526855 
	C207.070709,111.002396 204.040543,111.006233 201.006104,111.005936 
	C201.001816,111.001793 200.992065,110.991943 200.992065,110.991943 
z"/>
<path fill="#92695B" opacity="1.000000" stroke="none" 
	d="
M240.977432,170.865845 
	C241.051697,160.996429 241.051697,160.998764 251.021866,161.001389 
	C253.997879,161.002167 256.973907,160.985825 260.407227,160.952820 
	C260.895386,164.002045 260.926239,167.075760 260.467834,170.584717 
	C256.985077,171.013290 253.991592,171.006638 250.544342,170.998657 
	C247.065170,171.053955 244.039749,171.110596 241.000732,171.092407 
	C240.987137,171.017609 240.977432,170.865845 240.977432,170.865845 
z"/>
<path fill="#342720" opacity="1.000000" stroke="none" 
	d="
M201.011414,120.832458 
	C194.657181,120.875008 188.302933,120.917564 181.485443,120.897484 
	C181.102982,109.290154 179.638931,111.196304 190.618576,111.007362 
	C193.763809,110.953239 196.910751,110.996872 200.524475,110.993813 
	C200.992065,110.991943 201.001816,111.001793 201.002625,111.454910 
	C201.006104,114.882835 201.008759,117.857651 201.011414,120.832458 
z"/>
<path fill="#2C201B" opacity="1.000000" stroke="none" 
	d="
M201.475708,120.892410 
	C201.008759,117.857651 201.006104,114.882835 201.006912,111.459045 
	C204.040543,111.006233 207.070709,111.002396 210.556137,110.994781 
	C214.035080,110.996254 217.058746,111.001503 220.539352,111.460831 
	C220.993179,114.887482 220.990082,117.860069 220.986969,120.832657 
	C214.637985,120.872559 208.288971,120.912460 201.475708,120.892410 
z"/>
<path fill="#342720" opacity="1.000000" stroke="none" 
	d="
M221.438904,120.892792 
	C220.990082,117.860069 220.993179,114.887482 220.992599,111.466888 
	C221.321960,111.015045 221.655075,111.005234 221.988037,111.008240 
	C232.459427,111.102875 230.819595,109.858452 231.011536,120.499825 
	C227.975342,120.952866 224.933090,120.952904 221.438904,120.892792 
z"/>
<path fill="#745C4D" opacity="1.000000" stroke="none" 
	d="
M270.995117,250.491730 
	C267.957672,250.957626 264.923309,250.971252 261.433289,250.980194 
	C260.989044,247.976471 261.000427,244.977432 261.470337,241.500992 
	C264.914551,240.980301 267.900238,240.936996 270.885925,240.893692 
	C270.923340,243.942291 270.960785,246.990875 270.995117,250.491730 
z"/>
<path fill="#B98874" opacity="1.000000" stroke="none" 
	d="
M250.998108,171.000000 
	C253.991592,171.006638 256.985077,171.013290 260.421539,171.042343 
	C260.908264,174.080933 260.952026,177.097092 261.002869,180.551407 
	C261.009979,180.989548 261.042664,180.957123 260.588470,180.972198 
	C257.122620,180.945541 254.110977,180.903824 251.068726,180.418228 
	C251.024796,176.982895 251.011444,173.991440 250.998108,171.000000 
z"/>
<path fill="#B98874" opacity="1.000000" stroke="none" 
	d="
M270.926849,240.449188 
	C267.900238,240.936996 264.914551,240.980301 261.480774,241.052643 
	C261.021606,238.026718 261.010498,234.971725 260.999084,231.462341 
	C263.983246,231.006027 266.967743,231.004105 270.394043,231.003052 
	C270.879852,234.004166 270.923828,237.004410 270.926849,240.449188 
z"/>
<path fill="#B98874" opacity="1.000000" stroke="none" 
	d="
M270.994293,190.489777 
	C268.003418,190.957306 265.012817,190.971039 261.527679,190.516220 
	C261.036316,187.017487 261.039490,183.987305 261.042664,180.957123 
	C261.042664,180.957123 261.009979,180.989548 260.993469,181.005600 
	C264.070618,181.021652 267.164215,181.021652 270.994537,181.021652 
	C270.994537,184.260666 270.994537,187.148331 270.994293,190.489777 
z"/>
<path fill="#745C4D" opacity="1.000000" stroke="none" 
	d="
M240.923828,130.644531 
	C240.560104,131.084167 240.229950,131.044662 239.899063,131.037399 
	C231.063995,130.843796 231.063980,130.844360 230.925079,121.581635 
	C231.216217,121.108231 231.544250,121.055580 231.872437,121.054489 
	C242.603943,121.018753 240.876999,119.914467 240.923828,130.644531 
z"/>
<path fill="#2D231F" opacity="1.000000" stroke="none" 
	d="
M280.917664,300.567627 
	C280.546356,301.019440 280.214935,301.012634 279.883545,301.007080 
	C269.842804,300.838104 271.107147,302.405792 271.004730,291.449554 
	C271.332214,290.994110 271.657288,290.992126 271.982178,290.998810 
	C281.877869,291.201935 281.012939,289.329041 280.917664,300.567627 
z"/>
<path fill="#271D18" opacity="1.000000" stroke="none" 
	d="
M161.476929,301.004181 
	C160.676361,301.005859 160.343124,301.000641 160.009903,301.002777 
	C149.278488,301.071106 151.269547,300.049835 150.944946,310.510620 
	C147.910919,310.969879 144.898010,310.975311 141.438980,310.521973 
	C140.986877,307.034241 140.980927,304.005280 140.974976,300.976349 
	C140.988358,294.631805 141.001740,288.287262 141.458145,281.472473 
	C150.968246,280.987061 150.995728,280.957397 151.000961,271.830353 
	C151.003036,268.195648 151.015945,264.560944 151.475540,260.952362 
	C154.954865,260.982239 157.982605,260.985992 161.010330,260.989746 
	C161.010330,260.989746 161.004745,260.998840 161.002228,261.456665 
	C161.000900,271.031982 161.000900,271.032043 170.034912,270.997467 
	C170.361511,270.996216 170.688065,270.989807 171.014648,270.985779 
	C171.014648,270.985779 171.003723,270.997803 171.001770,271.452179 
	C170.988983,280.828979 170.988998,280.828369 179.922745,281.033264 
	C180.246536,281.040680 180.569519,281.084412 180.943634,281.107880 
	C180.994385,281.104553 180.999313,281.002930 181.000458,281.457397 
	C181.055969,284.946960 181.110321,287.982056 181.104950,291.467529 
	C180.975342,294.955139 180.905487,297.992401 180.835632,301.029633 
	C174.538513,301.019989 168.241379,301.010345 161.476929,301.004181 
z"/>
<path fill="#BD7976" opacity="1.000000" stroke="none" 
	d="
M161.143463,220.822311 
	C160.689331,230.997253 160.689331,230.997147 150.441010,230.999847 
	C147.655685,231.000565 144.870346,231.002289 141.629486,231.005829 
	C141.135483,224.685379 141.097031,218.362686 141.096436,211.526917 
	C141.134293,211.013870 141.010284,211.041336 141.459335,211.023880 
	C144.892380,210.985458 147.876389,210.964478 150.915726,211.399811 
	C150.971069,214.773132 150.971069,217.690140 150.971069,220.931259 
	C154.772202,220.931259 157.879120,220.931259 161.013351,220.886612 
	C161.040665,220.841965 161.143463,220.822311 161.143463,220.822311 
z"/>
<path fill="#2C201B" opacity="1.000000" stroke="none" 
	d="
M151.023926,260.926239 
	C151.015945,264.560944 151.003036,268.195648 151.000961,271.830353 
	C150.995728,280.957397 150.968246,280.987061 141.466125,281.004578 
	C141.021561,271.310364 141.012054,261.613770 141.456604,251.460236 
	C144.941574,251.000793 147.972473,250.998291 151.003387,250.995789 
	C151.003387,250.995789 150.993484,251.004913 150.992874,251.462387 
	C151.002808,254.921982 151.013367,257.924103 151.023926,260.926239 
z"/>
<path fill="#73584A" opacity="1.000000" stroke="none" 
	d="
M111.021896,301.022736 
	C111.014236,298.000000 111.006569,294.977264 111.012558,291.505798 
	C115.859200,291.038971 120.715950,291.311340 125.518288,290.918488 
	C130.031265,290.549316 131.654694,292.220703 131.013992,296.563599 
	C130.845474,297.705902 130.982056,298.893219 130.983948,300.517365 
	C130.989349,300.974884 130.972015,300.964539 130.506561,300.975708 
	C123.685890,300.983582 117.330681,300.980255 110.987396,300.987762 
	C110.999306,300.998596 111.021904,301.022736 111.021896,301.022736 
z"/>
<path fill="#92695B" opacity="1.000000" stroke="none" 
	d="
M151.089508,161.386063 
	C155.933929,160.951492 160.753342,161.267731 165.522995,160.913727 
	C169.943359,160.585648 171.675949,162.124084 171.031189,166.492584 
	C170.864120,167.624481 171.025314,168.804825 171.021179,170.476776 
	C171.006638,170.990631 170.929565,171.121796 170.484802,171.077789 
	C167.036453,171.037323 164.032867,171.040848 160.572342,171.032196 
	C157.057129,171.024933 153.998871,171.029846 150.951599,171.015518 
	C150.962585,170.996277 150.993668,171.028442 150.993668,171.028442 
	C151.010040,167.967117 151.026428,164.905807 151.089508,161.386063 
z"/>
<path fill="#3A2C25" opacity="1.000000" stroke="none" 
	d="
M141.162231,211.070892 
	C130.995682,210.728973 130.995667,210.728973 130.999496,200.223846 
	C131.002792,191.126633 131.002808,191.126633 140.704254,190.960297 
	C141.144577,190.985977 141.009903,190.960358 141.004944,191.431732 
	C141.003433,198.282516 141.006866,204.661926 141.010284,211.041336 
	C141.010284,211.041336 141.134293,211.013870 141.162231,211.070892 
z"/>
<path fill="#B98874" opacity="1.000000" stroke="none" 
	d="
M141.172333,190.923294 
	C141.200073,184.480072 141.200073,178.099548 141.200073,171.002106 
	C144.290558,171.002106 147.184982,171.002106 150.536530,171.015274 
	C150.993668,171.028442 150.962585,170.996277 150.972687,171.469742 
	C151.020828,174.998917 151.058899,178.054611 151.052826,181.553833 
	C150.962311,184.980484 150.915894,187.963638 150.424149,190.965729 
	C146.989182,190.976547 143.999542,190.968460 141.009903,190.960358 
	C141.009903,190.960358 141.144577,190.985977 141.172333,190.923294 
z"/>
<path fill="#342720" opacity="1.000000" stroke="none" 
	d="
M140.522934,300.983337 
	C140.980927,304.005280 140.986877,307.034241 140.985474,310.513519 
	C137.956009,310.986359 134.933914,311.008881 131.459290,311.061157 
	C131.006775,311.090942 131.000122,311.015350 130.999542,310.529724 
	C130.989975,307.017548 130.980988,303.991058 130.972015,300.964539 
	C130.972015,300.964539 130.989349,300.974884 130.976959,300.972412 
	C134.000000,300.976776 137.035461,300.983551 140.522934,300.983337 
z"/>
<path fill="#745C4D" opacity="1.000000" stroke="none" 
	d="
M150.999481,250.539215 
	C147.972473,250.998291 144.941574,251.000793 141.456940,250.990128 
	C141.014221,247.921494 141.025223,244.866028 141.074646,241.349182 
	C141.445129,240.913071 141.776855,240.953781 142.109314,240.961288 
	C150.985306,241.161743 150.985321,241.161163 150.999481,250.539215 
z"/>
<path fill="#634A43" opacity="1.000000" stroke="none" 
	d="
M111.507889,230.956268 
	C111.025276,227.911942 110.993477,224.888367 110.915848,221.408691 
	C110.870010,220.952560 110.996651,220.982529 111.497910,220.997131 
	C114.981522,221.004089 117.963875,220.996475 120.946220,220.988846 
	C120.956230,221.322006 120.976860,221.655228 120.974709,221.988312 
	C120.907806,232.360184 122.212868,230.884369 111.507889,230.956268 
z"/>
<path fill="#6B4D44" opacity="1.000000" stroke="none" 
	d="
M120.965668,220.533478 
	C117.963875,220.996475 114.981522,221.004089 111.557205,221.023926 
	C111.081657,218.011276 111.048088,214.986389 111.038940,211.513947 
	C111.395996,211.050034 111.728706,211.017761 112.061218,211.019669 
	C122.449722,211.079407 120.869751,209.823990 120.965668,220.533478 
z"/>
<path fill="#43332A" opacity="1.000000" stroke="none" 
	d="
M110.949570,320.508789 
	C110.606056,320.968781 110.281624,320.976562 109.957184,320.984314 
	C100.043541,321.221710 101.039642,319.334747 101.034790,330.609985 
	C101.033661,334.065247 101.015968,337.056763 101.002014,340.497986 
	C88.917152,341.015259 91.266701,342.123718 91.011864,331.247681 
	C90.938835,328.130981 90.996254,325.011200 90.992203,321.420044 
	C91.002876,317.958832 91.015213,314.970459 91.515350,311.505798 
	C98.325661,311.007355 104.648170,310.985168 110.970673,310.962982 
	C110.970001,313.994171 110.969322,317.025360 110.949570,320.508789 
z"/>
<path fill="#3A2C25" opacity="1.000000" stroke="none" 
	d="
M301.477997,330.970428 
	C301.012024,327.948029 301.001221,324.935669 301.439819,321.464691 
	C304.951111,320.991760 308.013062,320.977417 311.522766,320.976349 
	C314.949982,321.030670 317.929413,321.071686 320.908875,321.112732 
	C320.920990,327.439972 320.933136,333.767212 320.890289,340.562744 
	C317.860626,341.011749 314.885956,340.992462 311.461304,340.953918 
	C311.007324,340.602081 311.004303,340.269501 310.999207,339.936890 
	C310.839691,329.548370 312.307190,331.195007 301.477997,330.970428 
z"/>
<path fill="#745C4D" opacity="1.000000" stroke="none" 
	d="
M320.935974,320.649719 
	C317.929413,321.071686 314.949982,321.030670 311.496643,320.526123 
	C311.048981,317.034698 311.075165,314.006775 311.101379,310.978821 
	C314.086823,310.985901 317.072266,310.992950 320.503052,310.999878 
	C320.953278,314.062073 320.958191,317.124390 320.935974,320.649719 
z"/>
<path fill="#74584A" opacity="1.000000" stroke="none" 
	d="
M110.973557,310.976990 
	C104.648170,310.985168 98.325661,311.007355 91.543419,311.059052 
	C91.069519,308.002106 91.055359,304.915619 91.071182,301.366577 
	C94.083817,300.927765 97.066475,300.951569 100.494019,300.926636 
	C103.995003,300.917267 107.051109,300.956635 110.564560,301.009369 
	C111.021904,301.022736 110.999306,300.998596 110.995247,301.443695 
	C110.981941,304.917145 110.972694,307.945526 110.963455,310.973877 
	C110.963455,310.973877 110.976433,310.991028 110.973557,310.976990 
z"/>
<path fill="#43332A" opacity="1.000000" stroke="none" 
	d="
M311.066223,310.528442 
	C311.075165,314.006775 311.048981,317.034698 311.048889,320.512878 
	C308.013062,320.977417 304.951111,320.991760 301.431274,321.013000 
	C300.973389,321.019867 300.996002,321.013824 300.994873,320.562622 
	C300.991211,317.055969 300.988678,314.000549 300.986145,310.945129 
	C300.987762,307.925568 300.989410,304.905975 300.983337,301.431702 
	C303.981262,300.990784 306.986877,301.004608 310.433777,301.039276 
	C310.927094,304.066101 310.979095,307.072113 311.066223,310.528442 
z"/>
<path fill="#664B46" opacity="1.000000" stroke="none" 
	d="
M231.032166,271.125244 
	C234.048569,271.080109 237.064957,271.034973 240.533752,270.987366 
	C240.990997,271.309753 241.003754,271.634735 240.999573,271.959534 
	C240.863861,282.520660 242.373047,280.825409 231.505005,281.024780 
	C230.998947,281.048096 230.876877,281.037384 230.916168,280.582825 
	C230.981033,277.127228 231.006607,274.126251 231.032166,271.125244 
z"/>
<path fill="#9E6558" opacity="1.000000" stroke="none" 
	d="
M230.855225,291.015472 
	C230.924530,294.062378 230.993835,297.109253 231.122955,300.611359 
	C231.182755,301.066559 231.007797,301.061584 230.491058,301.021088 
	C219.599182,300.933777 221.149078,302.104919 221.004120,291.986298 
	C220.999374,291.654694 221.007126,291.322937 221.459747,290.991394 
	C224.892029,290.999542 227.873627,291.007507 230.855225,291.015472 
z"/>
<path fill="#896257" opacity="1.000000" stroke="none" 
	d="
M230.910339,290.563110 
	C227.873627,291.007507 224.892029,290.999542 221.455872,290.995453 
	C221.001312,290.999329 221.008820,290.990997 221.007690,290.536926 
	C220.982864,287.033905 220.959198,283.984955 220.935516,280.935974 
	C220.935516,280.935974 220.993729,280.941376 221.449493,280.970703 
	C224.895813,281.012482 227.886337,281.024933 230.876877,281.037384 
	C230.876877,281.037384 230.998947,281.048096 231.054901,281.022034 
	C231.062393,284.034241 231.013916,287.072510 230.910339,290.563110 
z"/>
<path fill="#634A43" opacity="1.000000" stroke="none" 
	d="
M241.449814,270.998749 
	C240.992706,270.666443 240.993500,270.339294 240.993622,270.012177 
	C240.997147,261.001770 240.997116,261.001770 250.539398,260.997253 
	C250.998291,261.322479 251.006332,261.649017 251.001236,261.975342 
	C250.837830,272.448761 252.449509,270.847778 241.449814,270.998749 
z"/>
<path fill="#6B4D44" opacity="1.000000" stroke="none" 
	d="
M260.547913,251.004028 
	C260.998383,254.011902 260.991272,257.016449 260.977600,260.466309 
	C257.944946,260.939178 254.918854,260.966675 251.437805,260.988586 
	C250.985550,260.656128 250.989838,260.329315 250.990707,260.002472 
	C251.014679,250.992050 251.014618,250.992050 260.547913,251.004028 
z"/>
<path fill="#A96A5C" opacity="1.000000" stroke="none" 
	d="
M221.005188,290.995300 
	C221.007126,291.322937 220.999374,291.654694 221.004120,291.986298 
	C221.149078,302.104919 219.599182,300.933777 230.421707,300.967712 
	C230.915039,304.014801 230.960968,307.074799 231.014282,310.593384 
	C227.985107,311.049622 224.948578,311.047272 221.462082,311.109253 
	C207.977921,311.117126 194.943741,311.060608 181.439224,311.023041 
	C180.966385,308.004181 180.963882,304.966339 180.898499,301.479065 
	C180.905487,297.992401 180.975342,294.955139 181.561218,291.462402 
	C195.054443,291.001617 208.031631,290.996307 221.008820,290.990997 
	C221.008820,290.990997 221.001312,290.999329 221.005188,290.995300 
z"/>
<path fill="#3A2C25" opacity="1.000000" stroke="none" 
	d="
M300.532104,310.963684 
	C300.988678,314.000549 300.991211,317.055969 300.987488,320.569000 
	C297.968414,321.014923 294.955536,321.003204 291.491455,320.983887 
	C291.015381,317.989532 290.990479,315.002716 290.940918,311.574646 
	C293.970184,311.083008 297.024109,311.032654 300.532104,310.963684 
z"/>
<path fill="#43332A" opacity="1.000000" stroke="none" 
	d="
M111.421402,310.981934 
	C110.972694,307.945526 110.981941,304.917145 110.983337,301.432861 
	C117.330681,300.980255 123.685890,300.983582 130.506561,300.975708 
	C130.980988,303.991058 130.989975,307.017548 130.997955,310.491791 
	C127.976440,310.963104 124.955902,310.986694 121.485138,311.016174 
	C117.983055,311.011383 114.931206,311.000671 111.421402,310.981934 
z"/>
<path fill="#9E6558" opacity="1.000000" stroke="none" 
	d="
M221.007690,290.536926 
	C208.031631,290.996307 195.054443,291.001617 181.620972,291.012024 
	C181.110321,287.982056 181.055969,284.946960 181.454956,281.456726 
	C184.947006,281.000458 187.985703,280.999268 191.024414,280.998077 
	C200.687012,280.991882 210.349594,280.985718 220.473846,280.957764 
	C220.959198,283.984955 220.982864,287.033905 221.007690,290.536926 
z"/>
<path fill="#2A262D" opacity="1.000000" stroke="none" 
	d="
M180.842361,200.977295 
	C180.883255,203.994965 180.924149,207.012634 180.451004,210.499695 
	C173.677673,210.956375 167.418365,210.943649 161.062286,210.896729 
	C160.965485,210.862503 160.874344,211.046494 160.931366,210.595383 
	C160.971878,207.130157 160.955383,204.116043 160.884842,200.973175 
	C160.830811,200.844437 160.975052,200.605316 161.419800,200.724915 
	C164.900452,200.883820 167.936386,200.923126 171.424255,200.971954 
	C174.864929,200.980072 177.853653,200.978668 180.842361,200.977295 
z"/>
<path fill="#5A4556" opacity="1.000000" stroke="none" 
	d="
M250.954254,220.965515 
	C244.559113,220.944107 238.163345,220.944107 231.050476,220.944107 
	C231.050476,217.642670 231.050476,214.744263 231.554840,211.409546 
	C238.286682,210.948395 244.514160,210.923538 250.826324,211.352905 
	C250.916962,214.857117 250.922913,217.907120 250.928864,220.957138 
	C250.928848,220.957138 250.953659,220.986908 250.954254,220.965515 
z"/>
<path fill="#5A4556" opacity="1.000000" stroke="none" 
	d="
M161.159058,210.930939 
	C167.418365,210.943649 173.677673,210.956375 180.393799,210.946777 
	C180.850647,214.016602 180.850647,217.108749 180.850647,220.958389 
	C174.401642,220.958389 168.226456,220.958389 161.597382,220.890350 
	C161.143463,220.822311 161.040665,220.841965 161.018921,220.437561 
	C161.051132,216.999100 161.105103,213.965012 161.159058,210.930939 
z"/>
<path fill="#B8777B" opacity="1.000000" stroke="none" 
	d="
M211.080566,240.988434 
	C220.983124,241.030075 220.983124,241.030075 221.001602,251.069489 
	C221.002213,251.401245 221.006149,251.733017 221.003677,252.064758 
	C220.924911,262.589813 222.015091,260.777649 211.480377,261.024170 
	C211.009506,261.017334 210.977493,260.972412 210.990021,260.507202 
	C210.970291,253.703537 210.938019,247.365097 210.949677,241.018097 
	C210.993607,241.009537 211.080566,240.988434 211.080566,240.988434 
z"/>
<path fill="#2A262D" opacity="1.000000" stroke="none" 
	d="
M250.741638,210.898682 
	C244.514160,210.923538 238.286682,210.948395 231.602051,210.949661 
	C231.109833,207.904892 231.074783,204.883698 231.558350,201.423615 
	C238.399506,200.863388 244.722076,200.742096 251.044632,200.620804 
	C251.044632,200.620804 251.189117,200.856613 251.099442,201.426453 
	C251.046463,205.001434 251.083160,208.006577 251.048889,210.904587 
	C250.977905,210.797455 250.741638,210.898682 250.741638,210.898682 
z"/>
<path fill="#B97D77" opacity="1.000000" stroke="none" 
	d="
M211.026382,261.039154 
	C210.921051,271.010132 210.921051,271.008606 200.882645,271.000427 
	C197.884995,270.997986 194.887360,271.006958 191.445572,271.005859 
	C191.001434,271.001038 190.971741,271.054382 190.971741,271.054382 
	C190.983856,268.002289 190.995972,264.950165 191.464630,261.445435 
	C194.962784,260.984833 198.004410,260.976929 201.495270,260.985107 
	C204.955505,260.991608 207.966492,260.982025 210.977493,260.972412 
	C210.977493,260.972412 211.009506,261.017334 211.026382,261.039154 
z"/>
<path fill="#120E0E" opacity="1.000000" stroke="none" 
	d="
M251.026825,200.198044 
	C244.722076,200.742096 238.399506,200.863388 231.619629,200.972153 
	C231.114761,197.977219 231.067200,194.994812 231.496246,191.519638 
	C234.941391,191.004684 237.909912,190.982513 241.341202,190.971848 
	C244.866180,190.988907 247.928375,190.994461 250.990601,191.000000 
	C250.996735,193.925095 251.002869,196.850189 251.026825,200.198044 
z"/>
<path fill="#896257" opacity="1.000000" stroke="none" 
	d="
M171.043976,170.924362 
	C181.014984,171.299240 181.017014,171.299240 180.999496,181.299408 
	C180.994308,184.254517 180.974060,187.209579 180.489899,190.597275 
	C177.036285,190.981064 174.053467,190.932236 171.039658,190.441681 
	C170.976318,187.042374 170.943970,184.084808 170.936493,180.667191 
	C170.950745,177.178696 170.940155,174.150238 170.929565,171.121796 
	C170.929565,171.121796 171.006638,170.990631 171.043976,170.924362 
z"/>
<path fill="#A96A5C" opacity="1.000000" stroke="none" 
	d="
M200.911804,240.984375 
	C200.942307,237.968552 200.972809,234.952744 201.458466,231.473145 
	C204.940338,231.015244 207.967041,231.021103 210.993759,231.026962 
	C211.004456,234.046448 211.015152,237.065933 211.053192,240.536926 
	C211.080566,240.988434 210.993607,241.009537 210.507202,241.010162 
	C207.041595,241.014282 204.062424,241.017792 201.040070,241.013535 
	C200.996887,241.005753 200.911789,240.984375 200.911804,240.984375 
z"/>
<path fill="#6F5247" opacity="1.000000" stroke="none" 
	d="
M151.475525,260.952362 
	C151.013367,257.924103 151.002808,254.921982 150.988678,251.468109 
	C151.311920,251.011978 151.638748,251.004898 151.965607,251.003586 
	C160.992905,250.967621 160.992905,250.967728 161.007111,260.533386 
	C157.982605,260.985992 154.954865,260.982239 151.475525,260.952362 
z"/>
<path fill="#7B554A" opacity="1.000000" stroke="none" 
	d="
M231.120758,180.957855 
	C231.109924,180.795914 231.093475,180.634109 231.089050,180.471985 
	C230.833511,171.118423 230.833588,171.118423 240.525177,170.920013 
	C240.977432,170.865845 240.987137,171.017609 240.997299,171.530670 
	C241.032944,175.065704 241.058426,178.087662 241.051971,181.101044 
	C241.020035,181.092468 241.037949,181.028809 240.583252,181.019348 
	C237.125946,180.992554 234.123352,180.975204 231.120758,180.957855 
z"/>
<path fill="#B8777B" opacity="1.000000" stroke="none" 
	d="
M191.007706,251.005173 
	C191.005615,250.672623 190.998672,250.340012 191.002151,250.007507 
	C191.110931,239.615417 189.796951,241.154770 200.464813,240.988983 
	C200.911789,240.984375 200.996887,241.005753 201.011078,241.464432 
	C200.991165,244.943817 200.957047,247.964508 200.473770,250.989090 
	C197.018982,250.997040 194.013336,251.001099 191.007706,251.005173 
z"/>
<path fill="#B36A7D" opacity="1.000000" stroke="none" 
	d="
M191.002594,251.458557 
	C194.013336,251.001099 197.018982,250.997040 200.498444,251.443848 
	C200.996857,254.919510 201.021454,257.944275 201.046036,260.968994 
	C198.004410,260.976929 194.962784,260.984833 191.467194,260.988770 
	C191.007996,257.960510 191.002747,254.936234 191.002594,251.458557 
z"/>
<path fill="#CA9375" opacity="1.000000" stroke="none" 
	d="
M210.996185,230.567566 
	C207.967041,231.021103 204.940338,231.015244 201.460495,231.021515 
	C201.004120,229.533691 201.131989,228.019577 200.972046,226.536530 
	C200.559174,222.708511 201.533600,220.780914 206.039246,220.850754 
	C210.096161,220.913651 211.485626,222.277191 211.025757,226.111252 
	C210.868088,227.425720 210.999359,228.774872 210.996185,230.567566 
z"/>
<path fill="#896257" opacity="1.000000" stroke="none" 
	d="
M231.077866,181.417389 
	C234.123352,180.975204 237.125946,180.992554 240.563416,181.470047 
	C240.958344,184.940247 240.918381,187.950287 240.878433,190.960327 
	C237.909912,190.982513 234.941391,191.004684 231.530579,191.075226 
	C231.070511,188.041367 231.052734,184.959137 231.077866,181.417389 
z"/>
<path fill="#271D17" opacity="1.000000" stroke="none" 
	d="
M171.070648,190.883423 
	C174.053467,190.932236 177.036285,190.981064 180.463043,191.072250 
	C180.928711,194.105133 180.950439,197.095657 180.907272,200.531723 
	C177.853653,200.978668 174.864929,200.980072 171.435287,200.519623 
	C171.019791,196.999664 171.045212,193.941544 171.070648,190.883423 
z"/>
<path fill="#7B554A" opacity="1.000000" stroke="none" 
	d="
M230.916168,280.582825 
	C227.886337,281.024933 224.895813,281.012482 221.452942,280.999695 
	C220.998489,280.672302 220.988449,280.345062 220.995377,280.018127 
	C221.211105,269.837097 219.262909,271.039764 230.573929,271.079346 
	C231.006607,274.126251 230.981033,277.127228 230.916168,280.582825 
z"/>
<path fill="#7B554A" opacity="1.000000" stroke="none" 
	d="
M191.017609,280.544586 
	C187.985703,280.999268 184.947006,281.000458 181.453796,281.002258 
	C180.999313,281.002930 180.994385,281.104553 180.977417,280.645966 
	C180.962769,277.167969 180.965073,274.148590 180.967377,271.129181 
	C184.000717,271.091064 187.034042,271.052948 190.519562,271.034607 
	C190.971741,271.054382 191.001434,271.001038 190.973785,271.014954 
	C190.967697,274.049622 190.989258,277.070343 191.017609,280.544586 
z"/>
<path fill="#664B46" opacity="1.000000" stroke="none" 
	d="
M180.518234,271.081146 
	C180.965073,274.148590 180.962769,277.167969 180.926666,280.649292 
	C180.569519,281.084412 180.246536,281.040680 179.922745,281.033264 
	C170.988998,280.828369 170.988983,280.828979 171.003906,271.448975 
	C174.028366,271.005310 177.048721,271.019196 180.518234,271.081146 
z"/>
<path fill="#6B4D44" opacity="1.000000" stroke="none" 
	d="
M171.013153,270.529602 
	C170.688065,270.989807 170.361511,270.996216 170.034912,270.997467 
	C161.000900,271.032043 161.000900,271.031982 160.999573,261.457520 
	C161.326309,261.000427 161.653168,261.000183 161.980026,261.000153 
	C171.003464,260.999268 171.003464,260.999268 171.013153,270.529602 
z"/>
<path fill="#B97D77" opacity="1.000000" stroke="none" 
	d="
M251.391632,220.970581 
	C250.922913,217.907120 250.916962,214.857117 250.826324,211.352890 
	C250.741638,210.898682 250.977905,210.797455 251.495728,210.902435 
	C255.016357,210.982162 258.019165,210.956909 261.022003,210.931641 
	C261.022003,210.931641 261.065887,210.820526 261.125671,210.823212 
	C261.141205,211.317093 261.073395,211.807465 261.056152,212.299606 
	C260.750397,221.030457 260.751740,221.030502 251.391632,220.970581 
z"/>
<path fill="#0D0808" opacity="1.000000" stroke="none" 
	d="
M241.341202,190.971863 
	C240.918381,187.950287 240.958344,184.940247 241.018127,181.479492 
	C241.037949,181.028809 241.020035,181.092468 241.499603,181.055984 
	C245.019211,180.967041 248.059265,180.914566 251.099319,180.862122 
	C254.110977,180.903824 257.122620,180.945541 260.588470,180.972198 
	C261.039490,183.987305 261.036316,187.017487 261.082336,190.496948 
	C258.056915,190.963486 254.982346,190.980743 251.449173,190.999008 
	C247.928375,190.994461 244.866180,190.988907 241.341202,190.971863 
z"/>
<path fill="#F1ECFE" opacity="1.000000" stroke="none" 
	d="
M261.013245,210.478851 
	C258.019165,210.956909 255.016357,210.982162 251.566696,211.009583 
	C251.083160,208.006577 251.046463,205.001434 251.035690,201.549164 
	C254.195557,201.102020 257.329498,201.102020 261.004517,201.102020 
	C261.004517,204.153458 261.004517,207.089767 261.013245,210.478851 
z"/>
<path fill="#6B4D44" opacity="1.000000" stroke="none" 
	d="
M251.068726,180.418213 
	C248.059265,180.914566 245.019211,180.967041 241.531540,181.064575 
	C241.058426,178.087662 241.032944,175.065704 241.010895,171.605469 
	C244.039749,171.110596 247.065170,171.053955 250.544342,170.998657 
	C251.011444,173.991440 251.024796,176.982895 251.068726,180.418213 
z"/>
<path fill="#030102" opacity="1.000000" stroke="none" 
	d="
M141.004944,191.431732 
	C143.999542,190.968460 146.989182,190.976547 150.889221,190.979156 
	C161.948639,191.253082 160.953506,189.240387 160.986084,200.112747 
	C160.986572,200.276917 160.978912,200.441132 160.975067,200.605316 
	C160.975052,200.605316 160.830811,200.844437 160.430939,200.926117 
	C157.148666,201.007782 154.266235,201.007782 151.036163,201.007782 
	C151.036163,204.572937 151.036163,207.777664 151.001312,210.931610 
	C150.966446,210.880829 150.860382,210.943497 150.860382,210.943497 
	C147.876389,210.964478 144.892380,210.985458 141.459335,211.023880 
	C141.006866,204.661926 141.003433,198.282516 141.004944,191.431732 
z"/>
<path fill="#F5EFF4" opacity="1.000000" stroke="none" 
	d="
M161.062271,210.896729 
	C161.105103,213.965012 161.051132,216.999100 160.991608,220.482208 
	C157.879120,220.931259 154.772202,220.931259 150.971069,220.931259 
	C150.971069,217.690140 150.971069,214.773132 150.915726,211.399811 
	C150.860382,210.943497 150.966446,210.880829 151.449097,210.938477 
	C154.912628,211.012924 157.893478,211.029709 160.874344,211.046494 
	C160.874344,211.046494 160.965485,210.862503 161.062271,210.896729 
z"/>
<path fill="#7B554A" opacity="1.000000" stroke="none" 
	d="
M151.096954,181.110321 
	C151.058899,178.054611 151.020828,174.998917 150.961685,171.488983 
	C153.998871,171.029846 157.057129,171.024933 160.562500,171.476837 
	C160.998169,174.902954 160.986755,177.872238 160.527924,180.895264 
	C157.085999,181.002777 154.091476,181.056549 151.096954,181.110321 
z"/>
<path fill="#664B46" opacity="1.000000" stroke="none" 
	d="
M160.975342,180.841522 
	C160.986755,177.872238 160.998169,174.902954 161.019440,171.489029 
	C164.032867,171.040848 167.036453,171.037323 170.484802,171.077789 
	C170.940155,174.150238 170.950745,177.178696 170.490097,180.626465 
	C167.004349,180.977692 163.989853,180.909607 160.975342,180.841522 
z"/>
<path fill="#0D0808" opacity="1.000000" stroke="none" 
	d="
M160.527924,180.895264 
	C163.989853,180.909607 167.004349,180.977692 170.465240,181.086517 
	C170.943970,184.084808 170.976318,187.042374 171.039658,190.441681 
	C171.045212,193.941544 171.019791,196.999664 170.983337,200.510117 
	C167.936386,200.923126 164.900452,200.883820 161.419800,200.724915 
	C160.978912,200.441132 160.986572,200.276917 160.986084,200.112747 
	C160.953506,189.240387 161.948639,191.253082 151.334549,190.960220 
	C150.915894,187.963638 150.962311,184.980484 151.052826,181.553833 
	C154.091476,181.056549 157.085999,181.002777 160.527924,180.895264 
z"/>
<path fill="#F1ECFE" opacity="1.000000" stroke="none" 
	d="
M160.931366,210.595383 
	C157.893478,211.029709 154.912628,211.012924 151.483963,210.989273 
	C151.036163,207.777664 151.036163,204.572937 151.036163,201.007782 
	C154.266235,201.007782 157.148666,201.007782 160.484985,201.054855 
	C160.955383,204.116043 160.971878,207.130157 160.931366,210.595383 
z"/>
<path fill="#885064" opacity="1.000000" stroke="none" 
	d="
M201.495270,260.985107 
	C201.021454,257.944275 200.996857,254.919510 200.947601,251.439972 
	C200.957047,247.964508 200.991165,244.943817 201.054260,241.472214 
	C204.062424,241.017792 207.041595,241.014282 210.463257,241.018707 
	C210.938019,247.365097 210.970291,253.703537 210.990021,260.507202 
	C207.966492,260.982025 204.955505,260.991608 201.495270,260.985107 
z"/>
</svg>