<svg version="1.1" id="Layer_1" xmlns="http://www.w3.org/2000/svg" xmlns:xlink="http://www.w3.org/1999/xlink" x="0px" y="0px"
	 width="100%" viewBox="0 0 200 200" enable-background="new 0 0 200 200" xml:space="preserve">
<path fill="#FFFFFF" opacity="1.000000" stroke="none" 
	d="
M201.000000,77.000000 
	C201.000000,118.640923 201.000000,159.781845 201.000000,200.961395 
	C134.400772,200.961395 67.801521,200.961395 1.101135,200.961395 
	C1.101135,134.442581 1.101135,67.884949 1.101135,1.163660 
	C67.666336,1.163660 134.333130,1.163660 201.000000,1.163660 
	C201.000000,26.198212 201.000000,51.349106 201.000000,77.000000 
M156.500000,21.000000 
	C108.103340,21.000000 59.706673,21.000000 11.318483,21.000000 
	C11.318483,74.711975 11.318483,127.612366 11.318483,180.594574 
	C71.320847,180.594574 131.003845,180.594574 190.681549,180.594574 
	C190.681549,127.288101 190.681549,74.387711 190.681549,21.000000 
	C179.413544,21.000000 168.456772,21.000000 156.500000,21.000000 
z"/>
<path fill="#7EBAD6" opacity="1.000000" stroke="none" 
	d="
M157.000000,21.000000 
	C168.456772,21.000000 179.413544,21.000000 190.681549,21.000000 
	C190.681549,74.387711 190.681549,127.288101 190.681549,180.594574 
	C131.003845,180.594574 71.320847,180.594574 11.318483,180.594574 
	C11.318483,127.612366 11.318483,74.711975 11.318483,21.000000 
	C59.706673,21.000000 108.103340,21.000000 157.000000,21.000000 
M71.000000,140.499802 
	C71.000000,114.116302 71.000000,87.732796 71.000000,61.327209 
	C53.962543,61.327209 37.734581,61.327209 21.403477,61.327209 
	C21.403477,94.652115 21.403477,127.648293 21.403477,160.673004 
	C38.037033,160.673004 54.264988,160.673004 71.000000,160.673004 
	C71.000000,154.068573 71.000000,147.784058 71.000000,140.499802 
M170.472000,31.000000 
	C120.759880,31.000000 71.047752,31.000000 21.430222,31.000000 
	C21.430222,38.157757 21.430222,44.388760 21.430222,50.626724 
	C74.736946,50.626724 127.612587,50.626724 180.655823,50.626724 
	C180.655823,44.022461 180.655823,37.794983 180.655823,31.000000 
	C177.366058,31.000000 174.412262,31.000000 170.472000,31.000000 
M92.519730,111.000000 
	C121.896706,111.000000 151.273682,111.000000 180.668030,111.000000 
	C180.668030,93.956566 180.668030,77.730095 180.668030,61.408470 
	C147.340286,61.408470 114.346100,61.408470 81.333107,61.408470 
	C81.333107,78.045723 81.333107,94.272293 81.333107,111.000000 
	C84.948563,111.000000 88.238007,111.000000 92.519730,111.000000 
M149.500000,131.000000 
	C159.905762,131.000000 170.311523,131.000000 180.573212,131.000000 
	C180.573212,127.171089 180.573212,124.269363 180.573212,121.370628 
	C147.255554,121.370628 114.365768,121.370628 81.336441,121.370628 
	C81.336441,124.647537 81.336441,127.549835 81.336441,131.000000 
	C103.945343,131.000000 126.222672,131.000000 149.500000,131.000000 
M140.499802,141.000000 
	C120.766632,141.000000 101.033470,141.000000 81.418671,141.000000 
	C81.418671,144.809631 81.418671,147.713211 81.418671,150.636719 
	C108.062042,150.636719 134.285522,150.636719 160.671661,150.636719 
	C160.671661,147.368240 160.671661,144.466553 160.671661,141.000000 
	C154.068176,141.000000 147.783875,141.000000 140.499802,141.000000 
M121.499573,171.000000 
	C127.908157,171.000000 134.316742,171.000000 140.574265,171.000000 
	C140.574265,167.163452 140.574265,164.267395 140.574265,161.370605 
	C120.589081,161.370605 101.031685,161.370605 81.335388,161.370605 
	C81.335388,164.646790 81.335388,167.548416 81.335388,171.000000 
	C94.609779,171.000000 107.554794,171.000000 121.499573,171.000000 
z"/>
<path fill="#FFCDD2" opacity="1.000000" stroke="none" 
	d="
M71.000000,140.999680 
	C71.000000,147.784058 71.000000,154.068573 71.000000,160.673004 
	C54.264988,160.673004 38.037033,160.673004 21.403477,160.673004 
	C21.403477,127.648293 21.403477,94.652115 21.403477,61.327209 
	C37.734581,61.327209 53.962543,61.327209 71.000000,61.327209 
	C71.000000,87.732796 71.000000,114.116302 71.000000,140.999680 
M37.365105,91.001625 
	C35.423515,91.001625 33.481926,91.001625 31.297054,91.001625 
	C31.297054,94.571808 31.297054,97.475136 31.297054,100.562454 
	C34.622971,100.562454 37.643398,100.562454 40.998276,100.562454 
	C40.998276,98.311501 41.344204,96.400543 40.889214,94.704430 
	C40.522842,93.338661 39.188213,92.232635 37.365105,91.001625 
M31.012024,118.288399 
	C33.164375,123.692467 37.279404,119.851517 40.686203,120.885185 
	C40.686203,117.392784 40.686203,114.489075 40.686203,111.452927 
	C37.342136,111.452927 34.321842,111.452927 31.001776,111.452927 
	C31.001776,113.723854 31.001776,115.546043 31.012024,118.288399 
M31.010994,133.715866 
	C31.010994,135.961029 31.010994,138.206207 31.010994,140.575851 
	C34.656918,140.575851 37.647778,140.575851 40.654846,140.575851 
	C40.654846,137.269974 40.654846,134.392517 40.654846,130.164154 
	C37.037521,131.163467 34.049908,131.988815 31.010994,133.715866 
M39.998077,75.586876 
	C39.264919,68.492035 34.401726,73.472588 31.606453,72.106812 
	C30.160086,80.911903 31.397785,82.099014 39.731983,80.263870 
	C39.817547,79.057243 39.908531,77.774155 39.998077,75.586876 
z"/>
<path fill="#9E9E9E" opacity="1.000000" stroke="none" 
	d="
M170.965240,31.000000 
	C174.412262,31.000000 177.366058,31.000000 180.655823,31.000000 
	C180.655823,37.794983 180.655823,44.022461 180.655823,50.626724 
	C127.612587,50.626724 74.736946,50.626724 21.430222,50.626724 
	C21.430222,44.388760 21.430222,38.157757 21.430222,31.000000 
	C71.047752,31.000000 120.759880,31.000000 170.965240,31.000000 
z"/>
<path fill="#3F51B5" opacity="1.000000" stroke="none" 
	d="
M92.023590,111.000000 
	C88.238007,111.000000 84.948563,111.000000 81.333107,111.000000 
	C81.333107,94.272293 81.333107,78.045723 81.333107,61.408470 
	C114.346100,61.408470 147.340286,61.408470 180.668030,61.408470 
	C180.668030,77.730095 180.668030,93.956566 180.668030,111.000000 
	C151.273682,111.000000 121.896706,111.000000 92.023590,111.000000 
M118.499954,71.000000 
	C109.406929,71.000000 100.313904,71.000000 91.383743,71.000000 
	C91.383743,81.409874 91.383743,91.137558 91.383743,100.749138 
	C108.042145,100.749138 124.315788,100.749138 140.704651,100.749138 
	C140.704651,90.771294 140.704651,81.046532 140.704651,71.000000 
	C133.442017,71.000000 126.470947,71.000000 118.499954,71.000000 
M151.812332,71.129005 
	C151.812332,80.964134 151.812332,90.799263 151.812332,100.665810 
	C157.966629,100.665810 164.356445,100.665810 170.618378,100.665810 
	C170.618378,90.603226 170.618378,80.879280 170.618378,71.017944 
	C164.412720,71.017944 158.587967,71.017944 151.812332,71.129005 
z"/>
<path fill="#D6C9C9" opacity="1.000000" stroke="none" 
	d="
M149.000000,131.000000 
	C126.222672,131.000000 103.945343,131.000000 81.336441,131.000000 
	C81.336441,127.549835 81.336441,124.647537 81.336441,121.370628 
	C114.365768,121.370628 147.255554,121.370628 180.573212,121.370628 
	C180.573212,124.269363 180.573212,127.171089 180.573212,131.000000 
	C170.311523,131.000000 159.905762,131.000000 149.000000,131.000000 
z"/>
<path fill="#D6C9C9" opacity="1.000000" stroke="none" 
	d="
M140.999680,141.000000 
	C147.783875,141.000000 154.068176,141.000000 160.671661,141.000000 
	C160.671661,144.466553 160.671661,147.368240 160.671661,150.636719 
	C134.285522,150.636719 108.062042,150.636719 81.418671,150.636719 
	C81.418671,147.713211 81.418671,144.809631 81.418671,141.000000 
	C101.033470,141.000000 120.766632,141.000000 140.999680,141.000000 
z"/>
<path fill="#D6C9C9" opacity="1.000000" stroke="none" 
	d="
M120.999687,171.000000 
	C107.554794,171.000000 94.609779,171.000000 81.335388,171.000000 
	C81.335388,167.548416 81.335388,164.646790 81.335388,161.370605 
	C101.031685,161.370605 120.589081,161.370605 140.574265,161.370605 
	C140.574265,164.267395 140.574265,167.163452 140.574265,171.000000 
	C134.316742,171.000000 127.908157,171.000000 120.999687,171.000000 
z"/>
<path fill="#CE959B" opacity="1.000000" stroke="none" 
	d="
M37.824142,91.006493 
	C39.188213,92.232635 40.522842,93.338661 40.889214,94.704430 
	C41.344204,96.400543 40.998276,98.311501 40.998276,100.562454 
	C37.643398,100.562454 34.622971,100.562454 31.297054,100.562454 
	C31.297054,97.475136 31.297054,94.571808 31.297054,91.001625 
	C33.481926,91.001625 35.423515,91.001625 37.824142,91.006493 
z"/>
<path fill="#CE959B" opacity="1.000000" stroke="none" 
	d="
M31.006901,117.828316 
	C31.001776,115.546043 31.001776,113.723854 31.001776,111.452927 
	C34.321842,111.452927 37.342136,111.452927 40.686203,111.452927 
	C40.686203,114.489075 40.686203,117.392784 40.686203,120.885185 
	C37.279404,119.851517 33.164375,123.692467 31.006901,117.828316 
z"/>
<path fill="#CE959B" opacity="1.000000" stroke="none" 
	d="
M31.036644,133.265015 
	C34.049908,131.988815 37.037521,131.163467 40.654846,130.164154 
	C40.654846,134.392517 40.654846,137.269974 40.654846,140.575851 
	C37.647778,140.575851 34.656918,140.575851 31.010994,140.575851 
	C31.010994,138.206207 31.010994,135.961029 31.036644,133.265015 
z"/>
<path fill="#CE959B" opacity="1.000000" stroke="none" 
	d="
M39.998798,76.038971 
	C39.908531,77.774155 39.817547,79.057243 39.731983,80.263870 
	C31.397785,82.099014 30.160086,80.911903 31.606453,72.106812 
	C34.401726,73.472588 39.264919,68.492035 39.998798,76.038971 
z"/>
<path fill="#FFC107" opacity="1.000000" stroke="none" 
	d="
M118.999916,71.000000 
	C126.470947,71.000000 133.442017,71.000000 140.704651,71.000000 
	C140.704651,81.046532 140.704651,90.771294 140.704651,100.749138 
	C124.315788,100.749138 108.042145,100.749138 91.383743,100.749138 
	C91.383743,91.137558 91.383743,81.409874 91.383743,71.000000 
	C100.313904,71.000000 109.406929,71.000000 118.999916,71.000000 
z"/>
<path fill="#FFFFFF" opacity="1.000000" stroke="none" 
	d="
M152.287781,71.073471 
	C158.587967,71.017944 164.412720,71.017944 170.618378,71.017944 
	C170.618378,80.879280 170.618378,90.603226 170.618378,100.665810 
	C164.356445,100.665810 157.966629,100.665810 151.812332,100.665810 
	C151.812332,90.799263 151.812332,80.964134 152.287781,71.073471 
z"/>
</svg>